<svg width="786" height="141" viewBox="0 0 786 141" fill="none" xmlns="http://www.w3.org/2000/svg">
<path d="M190.635 30.5L2 140.5H595.365L784 30.5H190.635Z" fill="#D3D3D3" stroke="black"/>
<path d="M346.147 98.3338C334.147 89.9338 335.814 56.8338 338.147 41.3338L357.647 31.3338C363.481 30.1671 379.347 29.9338 396.147 38.3338C412.947 46.7338 422.814 48.5005 425.647 48.3338V54.8338L431.647 58.3338C410.047 87.5338 420.981 107.5 429.147 113.834L360.147 116.334L346.147 100.834C351.147 103.5 358.147 106.734 346.147 98.3338Z" fill="black"/>
<path d="M639.648 1.3337C628.848 7.3337 618.481 15.5004 614.648 18.8337C625.848 19.6337 629.648 29.5004 630.148 34.3337L634.148 33.8337C650.548 35.0337 648.314 50.6671 645.148 58.3337L640.148 59.8337C638.481 60.3337 634.548 61.4337 632.148 61.8337C629.748 62.2337 630.481 66.6671 631.148 68.8337C631.981 69.5004 635.148 71.3337 641.148 73.3337C647.148 75.3337 657.314 88.1671 661.648 94.3337C662.148 97.6671 664.748 105.334 671.148 109.334C677.548 113.334 681.814 107 683.148 103.334L685.148 75.8337L677.648 54.8337L674.648 33.8337L671.148 23.3337L665.148 13.8337L663.148 12.3337L654.648 14.8337C654.814 16.1671 654.248 16.5337 650.648 7.3337C647.048 -1.8663 641.814 -0.499629 639.648 1.3337Z" fill="black"/>
<path d="M183.147 41.8337C182.747 46.2337 178.647 62.0004 176.647 69.3337C175.481 73.5004 175.147 84.0337 183.147 92.8337C191.147 101.634 231.481 103.834 250.647 103.834L352.647 113.334L347.647 98.8337C335.647 88.0337 336.314 56.3337 338.147 41.8337C312.147 58.6337 261.314 39.5004 239.147 27.8337L199.647 32.8337C194.314 34.0004 183.547 37.4337 183.147 41.8337Z" fill="#F06343" fill-opacity="0.96" stroke="black"/>
<path d="M229.648 72.3337C218.448 73.1337 214.648 68.6671 214.148 66.3337C213.851 65.5337 201.691 57.667 195.647 53.8337C190.981 52.0004 180.648 51.4337 176.648 63.8337C172.648 76.2337 177.648 85.0004 180.648 87.8337C184.248 94.6337 198.148 96.3337 204.648 96.3337C210.648 99.9337 249.148 103.167 267.648 104.334C274.848 108.734 296.648 112.167 306.648 113.334L346.648 115.334L356.647 116.834L388.147 117.334L393.647 117.834C411.647 121.834 417.981 119 418.148 117.334C423.348 118.534 426.314 116.167 427.148 114.834C431.948 116.034 428.981 110.667 428.147 108.334L401.147 99.8337L401.678 99.6317C409.678 96.5849 412.647 95.4542 412.647 93.3337C411.814 93.0004 407.347 90.0337 406.147 90.8337C404.947 91.6337 394.147 94.8337 389.647 95.8337C388.814 95.167 386.348 95.0337 379.148 95.8337C371.948 96.6337 366.814 99.5004 365.647 101.334L346.147 99.8337L316.148 89.3337L290.648 82.3337L277.648 81.3337C264.848 82.5337 240.314 75.8337 229.648 72.3337Z" fill="#E2B19B" stroke="black"/>
<path d="M421.148 109.334C413.148 96.5337 422.148 69.0004 427.648 56.8337H423.648L425.648 47.8337C429.814 47.1671 444.548 47.6337 470.148 54.8337C495.748 62.0337 512.148 49.1671 517.148 41.8337C518.148 35.8337 558.648 26.3337 577.148 26.8337C591.948 27.2337 608.314 22.3337 614.648 19.8337L621.648 15.8337L643.648 32.8337L655.148 56.8337L630.648 63.8337C622.148 61.3337 593.148 68.3337 580.148 76.8337C569.748 83.6337 540.814 92.0004 527.648 95.3337C500.148 117.834 490.148 105.834 488.148 107.334C486.148 108.834 432.648 112.334 431.148 112.334C429.948 112.334 423.981 110.334 421.148 109.334Z" fill="#E8C6B7" stroke="black"/>
<path d="M425.648 55.8337C439.981 58.0003 471.248 63.1337 481.648 66.3337C494.648 70.3337 513.648 65.8337 517.648 62.8337C521.648 59.8337 546.148 45.8337 559.148 45.8337C572.148 45.8337 626.648 34.8337 632.148 35.3337" stroke="black"/>
<path d="M417.648 117.334C410.814 116.334 396.248 113.234 392.648 108.834" stroke="black"/>
<path d="M423.648 113.334C418.981 113.334 408.548 110.334 400.148 106.334" stroke="black"/>
<path d="M91.1629 48.5C84.3629 64.5 100.163 82.8333 107.163 88.5C132.663 75.1667 185.048 43.8337 182.648 43.8337C179.648 43.8337 154.148 29.8337 141.148 23.3337C130.748 18.1337 120.148 21.167 116.148 23.3337C95.6477 35.3337 99.6629 28.5 91.1629 48.5Z" fill="black" stroke="black"/>
<path d="M135.163 69.2811C119.163 61.6811 113.497 75.7811 112.663 83.7811C121.663 92.7811 131.663 90.7811 145.163 94.2811C158.663 97.7811 160.163 89.7811 169.163 88.2811C178.163 86.7811 170.663 74.2811 173.163 74.7811C175.163 75.1811 177.663 71.2811 178.663 69.2811C178.263 60.4811 180.33 48.8333 182.163 44C167.163 45 176.663 43.7811 160.163 38.7811C146.963 34.7811 143.33 47.1145 143.163 53.7811C138.163 52.9478 129.563 52.9811 135.163 59.7811C140.763 66.5811 137.497 68.9478 135.163 69.2811Z" fill="#E8C6B7" stroke="black"/>
</svg>
