<svg width="786" height="193" viewBox="0 0 786 193" fill="none" xmlns="http://www.w3.org/2000/svg">
<path d="M190.635 82.5L2 192.5H595.365L784 82.5H190.635Z" fill="#D3D3D3" stroke="black"/>
<path d="M246.606 91.398C236.475 96.2414 231.304 93.4754 229.985 91.4869C229.416 90.8508 215.221 87.9804 208.194 86.6247C203.18 86.6264 193.356 89.8808 194.172 102.884C194.987 115.888 202.849 122.217 206.678 123.756C212.516 128.766 226.074 125.261 232.123 122.882C239.025 124.037 276.037 112.956 293.681 107.271C301.991 108.731 323.535 103.947 333.269 101.373L371.226 88.5955L381.081 86.3318L410.578 75.2688L415.88 73.7212C434.095 70.8562 438.952 65.9015 438.497 64.2894C443.776 63.5031 445.67 60.2149 445.958 58.6691C450.864 58.0291 446.139 54.1206 444.509 52.2541L416.272 54.2252L416.692 53.843C423.022 48.0796 425.371 45.9407 424.595 43.9674C423.698 43.9622 418.455 42.836 417.631 44.0197C416.807 45.2034 407.928 52.1339 404.106 54.7114C403.086 54.396 400.742 55.1746 394.334 58.5541C387.927 61.9337 384.198 66.4802 383.784 68.6133L365.087 74.3539L333.326 75.5616L307.033 78.3797L294.569 82.2067C283.096 88.008 257.813 90.7514 246.606 91.398Z" fill="#E2B19B" stroke="black"/>
<path d="M438.032 64.4724C431.307 66.0426 416.616 68.4888 411.656 65.7115" stroke="black"/>
<path d="M442.152 58.554C437.809 60.2619 427.001 61.2884 417.72 60.6401" stroke="black"/>
<path d="M339.647 154.06C327.647 145.66 329.314 112.56 331.647 97.0599L351.147 87.0599C356.981 85.8932 372.847 85.6599 389.647 94.0599C406.447 102.46 416.314 104.227 419.147 104.06V110.56L425.147 114.06C403.547 143.26 414.481 163.227 422.647 169.56L353.647 172.06L339.647 156.56C344.647 159.227 351.647 162.46 339.647 154.06Z" fill="black"/>
<path d="M633.147 57.0599C622.347 63.0599 611.981 71.2266 608.147 74.5599C619.347 75.3599 623.147 85.2266 623.647 90.0599L627.647 89.5599C644.047 90.7599 641.814 106.393 638.647 114.06L633.647 115.56C631.981 116.06 628.047 117.16 625.647 117.56C623.247 117.96 623.981 122.393 624.647 124.56C625.481 125.227 628.647 127.06 634.647 129.06C640.647 131.06 650.814 143.893 655.147 150.06C655.647 153.393 658.247 161.06 664.647 165.06C671.047 169.06 675.314 162.727 676.647 159.06L678.647 131.56L671.147 110.56L668.147 89.5599L664.647 79.0599L658.647 69.5599L656.647 68.0599L648.147 70.5599C648.314 71.8933 647.747 72.2599 644.147 63.0599C640.547 53.8599 635.314 55.2266 633.147 57.0599Z" fill="black"/>
<path d="M176.647 97.5599C176.247 101.96 172.147 117.727 170.147 125.06C168.981 129.227 168.647 139.76 176.647 148.56C184.647 157.36 224.981 159.56 244.147 159.56L357.853 172.5L343 154.56C331 143.76 329.14 112.145 330.974 97.6451C304.974 114.445 254.14 95.3118 231.974 83.6451L193.147 88.5599C187.814 89.7265 177.047 93.1599 176.647 97.5599Z" fill="#F06343" fill-opacity="0.96" stroke="black"/>
<path d="M414.647 165.06C406.647 152.26 415.647 124.727 421.147 112.56H417.147L419.147 103.56C423.314 102.893 438.047 103.36 463.647 110.56C489.247 117.76 505.647 104.893 510.647 97.5599C511.647 91.5599 552.147 82.0599 570.647 82.5599C585.447 82.9599 601.814 78.0599 608.147 75.5599L615.147 71.5599L637.147 88.5599L648.647 112.56L624.147 119.56C615.647 117.06 586.647 124.06 573.647 132.56C563.247 139.36 534.314 147.727 521.147 151.06C493.647 173.56 483.647 161.56 481.647 163.06C479.647 164.56 426.147 168.06 424.647 168.06C423.447 168.06 417.481 166.06 414.647 165.06Z" fill="#E8C6B7" stroke="black"/>
<path d="M419.147 111.56C433.481 113.726 464.747 118.86 475.147 122.06C488.147 126.06 507.147 121.56 511.147 118.56C515.147 115.56 539.647 101.56 552.647 101.56C565.647 101.56 620.147 90.5598 625.647 91.0598" stroke="black"/>
<path d="M233.824 118.195C223.376 122.308 218.414 119.182 217.239 117.105C216.717 116.431 202.76 112.561 195.847 110.711C190.846 110.357 180.816 112.907 180.708 125.936C180.599 138.964 187.993 145.834 191.703 147.641C197.172 153.053 210.944 150.518 217.146 148.573C223.948 150.214 261.653 141.785 279.655 137.365C287.842 139.41 309.671 136.166 319.562 134.288L358.329 124.233L368.32 122.674L398.527 113.73L403.925 112.562C422.298 110.995 427.494 106.397 427.154 104.757C432.475 104.347 434.598 101.201 434.995 99.6796C439.934 99.389 435.498 95.1553 434.005 93.1781L405.698 93.1425L406.144 92.791C412.867 87.4909 415.362 85.5239 414.728 83.5005C413.833 83.4317 408.683 81.9368 407.778 83.0591C406.872 84.1813 397.523 90.465 393.528 92.7651C392.534 92.3782 390.14 92.9887 383.509 95.9055C376.878 98.8223 372.837 103.093 372.272 105.191L353.216 109.592L321.449 108.546L295.022 109.493L282.318 112.427C270.463 117.4 245.049 118.344 233.824 118.195Z" fill="#E2B19B" stroke="black"/>
<path d="M426.677 104.906C419.858 105.996 405.031 107.395 400.28 104.273" stroke="black"/>
<path d="M431.206 99.2951C426.753 100.691 415.9 100.949 406.688 99.644" stroke="black"/>
<path d="M92.5447 60.0046C79.8112 71.841 86.7619 95.0237 90.8427 103.052C119.563 101.276 180.172 94.0283 177.98 93.0497C175.241 91.8263 157.667 68.6448 148.447 57.4086C141.072 48.4197 130.156 46.8669 125.62 47.2141C102.009 49.8116 108.461 45.2092 92.5447 60.0046Z" fill="black" stroke="black"/>
<path d="M124.246 96.9219C112.736 83.458 101.813 94.0217 97.7894 100.987C102.337 112.874 112.283 115.126 123.183 123.827C134.082 132.528 138.714 125.835 147.543 128.135C156.373 130.435 154.622 115.964 156.701 117.44C158.364 118.62 168.771 122.144 170.5 120.726C173.723 112.528 175.855 96.8916 179.5 93.226C165.396 88.0224 172.538 90.5612 159.511 79.2675C149.089 70.2325 140.742 80.0122 137.872 86.0314C133.646 83.2316 125.78 79.7551 128.12 88.2477C130.461 96.7402 126.513 97.569 124.246 96.9219Z" fill="#E8C6B7" stroke="black"/>
</svg>
