<svg width="173" height="84" viewBox="0 0 173 84" fill="none" xmlns="http://www.w3.org/2000/svg">
<g clip-path="url(#clip0_2_46)">
<path d="M156.042 58.0982H89.816H82.857H16.633L1.52588e-05 83.3112H82.857H89.816H172.674L156.042 58.0982Z" fill="#D9D9D9"/>
<path d="M85.221 36.2562C94.194 39.8892 106.1 44.2662 116.867 43.4792C136.422 42.0472 142.998 52.4092 146.675 51.0942C150.352 49.7812 155.21 47.4182 156.129 47.5492C157.048 47.6802 159.28 58.9732 157.443 59.7622C155.604 60.5492 143.261 55.1662 139.847 55.5592C136.433 55.9542 108.376 52.1452 91.393 53.3712" fill="#FFA764"/>
<path d="M82.755 70.4592C92.193 68.3072 104.645 65.8892 115.148 68.3872C134.223 72.9242 142.37 63.7462 145.79 65.6312C149.209 67.5162 156.819 70.5122 157.748 70.5292C158.676 70.5472 158.561 60.2182 156.873 59.1482C155.183 58.0762 143.069 61.0682 139.762 60.1322C136.456 59.1982 108.152 58.4742 91.581 54.5502" fill="#FFA764"/>
<path d="M29.151 56.8732C30.595 59.4982 31.252 60.8112 30.726 62.5182C30.201 64.2252 26.261 72.1042 26.261 72.1042C26.261 72.1042 30.595 76.5692 29.282 80.6392C27.968 84.7112 16.676 77.4892 18.384 72.3672C20.091 67.2462 22.848 59.4982 23.899 58.0542C24.949 56.6102 29.151 56.8732 29.151 56.8732Z" fill="#FFA764"/>
<path d="M64.255 29.9102C70.732 29.5582 86.447 32.2732 100.453 39.2772C102.554 49.4312 100.716 50.4372 101.021 53.7202C96.995 53.7202 95.244 54.2453 95.244 54.2453C98.396 54.7703 101.196 55.6452 101.196 55.6452C101.022 59.4972 94.193 65.9753 93.318 70.1763C89.466 73.3283 60.929 69.4773 57.426 61.4223C54.976 54.5963 64.956 47.0682 64.255 29.9102Z" fill="#4C280B"/>
<path d="M39.59 4.80723C42.348 3.16623 50.752 -0.247768 55.02 0.0142316C59.288 0.278232 76.293 7.43424 78.525 26.9982C78.984 33.9592 76.423 35.9282 72.879 34.8772C69.333 33.8262 70.767 30.8652 70.844 25.2912C70.975 15.8382 54.626 12.4242 53.576 8.87724C48.06 10.6502 44.318 14.5232 44.318 14.5232L39.59 4.80723Z" fill="#FFA764"/>
<path d="M23.898 29.8222C18.121 32.1852 14.181 32.7112 15.495 40.3262C16.808 47.9432 19.172 58.8422 19.172 58.8422C23.242 61.6002 28.757 60.1552 29.808 58.4472C29.414 56.8732 29.414 53.5903 29.414 53.5903C32.828 56.3483 50.686 63.0432 58.302 62.3872C65.262 57.2662 68.807 42.0343 65.918 29.8233C60.534 28.6413 46.353 21.6822 45.303 15.5102C46.222 13.6702 48.06 12.3582 48.06 12.3582C46.747 6.84223 42.939 4.21723 39.657 4.47923C36.374 4.74323 25.081 12.6222 25.738 18.3992C27.312 24.7012 29.414 27.9852 23.898 29.8222Z" fill="#F0A050"/>
<path d="M25.212 16.7792C23.461 5.57223 16.281 3.12122 9.27901 6.09722C2.27601 9.07422 5.07701 19.5792 12.081 27.1072C19.084 34.6362 22.41 29.0332 22.41 29.0332C25.561 33.0602 27.707 32.4492 29.107 29.8222C30.506 27.1952 29.063 20.1052 29.063 20.1052L25.212 16.7792Z" fill="#FFA764"/>
<path d="M24.109 12.4572C21.365 4.99622 15.262 3.55524 9.27901 6.09824C5.16001 7.85024 4.45101 12.2092 5.97501 17.0322C12.069 14.1142 14.881 7.14923 14.881 7.14923C18.207 11.8782 20.418 11.9642 20.418 11.9642L21.358 16.4292C21.702 16.4972 22.764 16.3002 22.518 15.2472C21.798 12.1602 23.045 11.2422 24.109 12.4572Z" fill="#603813"/>
<path d="M18.716 31.0352C21.203 31.0602 22.41 29.0332 22.41 29.0332C22.71 29.4162 23.013 29.7582 23.314 30.0762C23.433 28.4432 23.354 26.2152 22.585 23.7172C22.586 28.0762 20.92 30.7132 18.716 31.0352Z" fill="#D18449"/>
</g>
<defs>
<clipPath id="clip0_2_46">
<rect width="172.674" height="83.3112" fill="white"/>
</clipPath>
</defs>
</svg>
