<svg width="173" height="88" viewBox="0 0 173 88" fill="none" xmlns="http://www.w3.org/2000/svg">
<g clip-path="url(#clip0_2_58)">
<path d="M156.042 62.0215H89.817H82.858H16.632L0 87.2345H82.858H89.817H172.674L156.042 62.0215Z" fill="#D9D9D9"/>
<path d="M88.242 27.7045C96.353 32.9895 109.355 38.6575 120.074 39.9445C139.541 42.2865 144.01 53.7125 147.871 53.1285C151.732 52.5425 156.952 51.1535 157.829 51.4585C158.707 51.7635 158.736 63.2745 156.781 63.6965C154.826 64.1165 143.741 56.4705 140.315 56.2025C136.888 55.9345 110.081 46.8255 93.176 44.7765" fill="#FFA764"/>
<path d="M81.7 59.4135C91.375 59.1065 104.059 59.1185 113.89 63.5815C131.743 71.6885 141.496 64.2395 144.492 66.7435C147.486 69.2495 154.383 73.6455 155.291 73.8415C156.198 74.0365 158.062 63.8785 156.611 62.5035C155.157 61.1285 142.696 61.7435 139.629 60.1925C136.563 58.6435 108.92 52.5125 93.409 45.4895" fill="#FFA764"/>
<path d="M29.151 60.7965C30.595 63.4215 31.253 64.7345 30.727 66.4415C30.202 68.1485 26.262 76.0275 26.262 76.0275C26.262 76.0275 30.595 80.4925 29.283 84.5625C27.969 88.6345 16.678 81.4125 18.385 76.2905C20.092 71.1695 22.849 63.4215 23.9 61.9775C24.949 60.5335 29.151 60.7965 29.151 60.7965Z" fill="#FFA764"/>
<path d="M65.388 24.4745C71.814 23.5855 89.108 26.4885 103.649 32.3005C106.588 42.2455 103.334 43.8945 103.912 47.1385C99.899 47.4745 93.67 45.9565 93.67 45.9565C96.854 46.2185 103.912 48.9775 103.912 48.9775C104.082 53.4445 101.191 62.0345 98.922 64.2095C95.02 62.2955 65.369 64.1825 61.208 56.4475C58.195 49.8475 67.516 41.5155 65.388 24.4745Z" fill="#4C280B"/>
<path d="M36.566 8.03454C38.913 5.84554 46.399 0.723521 50.625 0.0735215C54.852 -0.576478 72.987 2.80354 79.327 21.4485C81.254 28.1515 79.171 30.6205 75.482 30.3455C71.794 30.0735 72.566 26.8745 71.458 21.4115C69.578 12.1455 52.876 12.2825 51.098 9.04052C46.085 11.9445 43.251 16.5245 43.251 16.5245L36.566 8.03454Z" fill="#FFA764"/>
<path d="M23.68 32.3005C17.903 34.6655 14.182 36.6345 15.494 44.2495C16.808 51.8665 19.171 62.7655 19.171 62.7655C23.242 65.5235 28.757 64.0785 29.808 62.3705C29.413 60.7965 30.115 51.4725 30.115 51.4725C33.529 54.2305 55.327 60.1385 62.943 59.4825C69.902 54.3615 70.165 36.3735 67.276 24.1605C61.892 22.9785 54.276 20.8775 45.302 19.4335C46.222 17.5935 46.572 13.1735 46.572 13.1735C45.259 7.6575 41.1 6.78252 37.817 7.04652C34.534 7.30852 25.08 16.5445 25.736 22.3215C27.313 28.6245 29.195 30.4625 23.68 32.3005Z" fill="#F0A050"/>
<path d="M20.637 20.4355C14.062 11.1955 6.54401 12.2105 1.61101 18.0055C-3.32299 23.7985 3.88002 31.9435 13.509 35.5465C23.14 39.1505 23.61 32.6505 23.61 32.6505C28.229 34.8435 29.875 33.3385 29.953 30.3615C30.032 27.3865 25.57 21.6895 25.57 21.6895L20.637 20.4355Z" fill="#FFA764"/>
<path d="M17.719 17.0625C11.928 11.6155 5.82601 13.0545 1.61101 18.0055C-1.29099 21.4115 0.024013 25.6285 3.54301 29.2615C7.68901 23.9275 7.09303 16.4395 7.09303 16.4395C12.181 19.1815 14.197 18.2715 14.197 18.2715L17.035 21.8455C17.374 21.7515 18.235 21.0995 17.545 20.2695C15.519 17.8315 16.223 16.4505 17.719 17.0625Z" fill="#603813"/>
<path d="M21.199 36.0915C23.435 35.0035 23.609 32.6505 23.609 32.6505C24.047 32.8595 24.47 33.0275 24.883 33.1795C24.261 31.6655 23.193 29.7065 21.389 27.8145C23.338 31.7165 23.026 34.8185 21.199 36.0915Z" fill="#D18449"/>
</g>
<defs>
<clipPath id="clip0_2_58">
<rect width="172.674" height="87.2345" fill="white"/>
</clipPath>
</defs>
</svg>
