<svg width="210" height="95" viewBox="0 0 210 95" fill="none" xmlns="http://www.w3.org/2000/svg">
<path d="M209.728 94.387H0L17.675 80H192.053L209.728 94.387Z" fill="#D9D9D9"/>
<path d="M151.543 10.7947C147.35 12.7942 146.103 12.6377 143.967 12.4833C143.117 12.4206 142.127 12.3601 140.753 12.4332C135.929 12.6941 135.363 13.8107 126.725 22.126C118.087 30.4391 114.245 33.5198 110.531 33.1023C106.818 32.687 101.291 29.2286 96.3925 30.5539C91.495 31.8793 89.1298 37.1681 87.3728 38.7836C85.615 40.399 76.8237 44.3146 70.8035 48.5578C65.6304 52.204 64.3408 52.179 61.3234 52.154C60.8291 52.1498 60.2888 52.1456 59.6781 52.1581C55.3332 52.2437 53.3846 54.6001 44.8559 59.6322C35.3324 65.2509 31.0871 64.9775 30.7773 63.5227C30.6444 62.8966 26.6535 63.218 23.4756 63.602C22.5591 63.7106 21.7341 63.6981 21.0199 63.6876C19.2572 63.6584 18.1655 63.6292 18.0245 65.4367C17.8264 67.9767 18.8544 74.9457 20.2722 75.1753C21.69 75.4049 23.3508 75.647 22.216 76.8409C21.0818 78.0347 23.566 81.8376 24.3821 84.2712C25.199 86.7027 32.077 88.1283 33.6505 87.1223C35.2232 86.1162 36.2463 82.8937 34.2781 82.8832C31.4605 82.8686 29.4631 77.8949 31.7671 76.3003C34.0703 74.7036 32.4022 74.3655 31.9987 73.1967C31.5959 72.0258 39.1838 69.5296 47.393 67.8306C55.6023 66.1317 64.9033 62.7713 67.6517 62.2934C70.4009 61.8154 70.735 60.5673 73.326 60.8073C75.917 61.0473 88.948 59.4381 96.2312 55.963C103.514 52.4879 109.434 47.151 113.871 47.1949C118.307 47.2408 127.71 43.9618 132.199 41.8538C136.687 39.7478 142.394 36.0765 145.117 32.7099C147.84 29.3434 147.412 23.0359 149.257 21.0678C151.101 19.1016 154.022 18.9075 155.877 18.8053C157.732 18.703 151.543 10.7947 151.543 10.7947Z" fill="#FFD1A3"/>
<path d="M30.8368 63.6709L30.7773 63.5227C30.6444 62.8966 26.6535 63.218 23.4756 63.602C20.2967 63.984 18.2234 62.8966 18.0245 65.4367C17.8264 67.9767 18.8544 74.9457 20.2722 75.1753C21.69 75.4049 23.3508 75.647 22.216 76.8409C21.0818 78.0347 23.566 81.8376 24.3821 84.2712C25.199 86.7027 32.077 88.1283 33.6505 87.1223C35.2232 86.1162 36.2463 82.8937 34.2781 82.8832C31.4605 82.8686 29.4631 77.8949 31.7671 76.3003C32.7389 75.6262 32.9998 75.1774 32.9509 74.7955C32.9795 74.28 31.6865 72.6749 31.4001 72.3973C30.4618 71.4936 29.3172 73.7895 28.7204 74.2466C28.1235 74.7036 30.572 65.7685 30.8368 63.6709Z" fill="#4C280B"/>
<path d="M116.234 31.2531C114 32.7287 112.249 33.2964 110.531 33.1023C106.818 32.687 101.291 29.2286 96.3926 30.5539C91.495 31.8793 89.1299 37.1681 87.3729 38.7836C85.6151 40.399 76.8237 44.3146 70.8035 48.5578C70.1701 49.0044 69.6059 49.3843 69.0785 49.7266C70.599 53.9155 72.1245 57.8373 73.3098 60.8073H73.3261C75.9171 61.0473 88.9481 59.4381 96.2312 55.963C103.514 52.4879 109.434 47.151 113.871 47.1949C115.26 47.2095 117.138 46.8964 119.199 46.3975C118.443 42.1961 117.212 35.5589 116.234 31.2531Z" fill="#4C280B"/>
<path d="M139.823 12.7316C136.014 12.2516 135.316 13.8566 126.725 22.126C118.087 30.4391 109.169 32.8602 108.418 32.6411L113.609 47.2115L113.871 47.1949C118.307 47.2387 127.71 43.9618 132.199 41.8538C136.687 39.7478 143.982 36.9532 146.068 33.1587C152.577 21.3099 146.118 13.5268 139.823 12.7316Z" fill="#F0A050"/>
<path d="M170.537 13.4225C169.239 15.7538 167.459 18.0268 166.951 18.463C166.442 18.8971 165.628 18.2313 165.047 19.014C164.467 19.7967 163.807 21.1846 163.42 22.4244C163.041 23.637 162.335 23.5327 161.704 22.869C161.074 22.2053 161.069 22.2449 160.555 22.6498C160.04 23.0547 160.049 22.9754 159.806 22.8043C159.563 22.6331 159.225 23.2614 158.901 23.0798C158.578 22.9003 158.116 22.8648 157.522 23.2614C156.928 23.6558 156.543 24.3195 155.7 23.5703C154.857 22.821 154.177 19.8676 153.083 19.6881C151.466 19.4231 148.728 20.3164 148.728 20.3164L146.271 12.8089C146.271 12.8089 149.085 11.7507 149.766 11.1433C150.447 10.5359 153.637 4.87345 155.371 3.76308C157.105 2.65271 160.543 1.03725 164.383 2.14553C168.225 3.25173 172.414 10.0517 170.537 13.4225Z" fill="#FFD1A3"/>
<path d="M170.434 8.03136C171.422 10.4045 170.823 13.5582 170.603 14.3826C170.382 15.207 170.437 15.5994 170.437 15.5994C170.437 15.5994 170.552 16.1609 170.085 15.1528C169.618 14.1426 169.95 15.7643 169.783 15.6432C169.614 15.5222 169.16 14.1133 168.389 13.5018C167.618 12.8903 166.926 12.7463 166.985 13.099C167.045 13.4496 166.481 12.7337 165.743 12.6273C165.006 12.5188 164.31 13.4267 163.603 13.4037C162.896 13.3808 161.576 14.9253 161.099 14.5037C160.623 14.082 160.188 13.483 161.167 12.2412C162.147 10.9993 160.156 10.3564 158.965 11.3291C157.775 12.3017 157.968 13.0552 156.177 12.4353C154.386 11.8154 151.157 11.3666 150.214 11.4397C149.271 11.5127 148.584 10.8595 148.584 10.8595C148.584 10.8595 149.385 10.6007 149.532 10.3961C149.679 10.1916 152.707 3.35613 156.241 1.25227C159.775 -0.851592 165.581 -0.732639 169.113 4.9674C170.406 7.05456 171.154 8.67004 170.848 8.55733C170.542 8.44463 170.434 8.03136 170.434 8.03136Z" fill="#603813"/>
<path d="M85.955 50.4279C85.955 50.4279 86.0032 49.3196 91.7845 44.1079C97.4369 39.0153 104.289 38.1929 110.006 38.1929C110.137 38.1929 110.267 38.1929 110.396 38.195L111.741 41.9686C111.741 41.9686 107.268 41.3946 102.599 41.3946C101.466 41.3946 100.321 41.4301 99.2256 41.5136C93.6197 41.9435 85.955 50.4279 85.955 50.4279Z" fill="#4C280B"/>
<path d="M143.732 14.0236C147.478 16.835 148.118 22.2408 146.281 27.419C144.445 32.5993 144.387 36.8425 143.579 41.81C142.772 46.7753 145.814 50.1607 145.049 54.6022C144.283 59.0458 143.383 70.8695 143.504 72.8002C143.624 74.7287 144.794 77.1811 146.747 77.4316C148.699 77.682 152.063 78.3562 155.175 79.1034C160.902 80.4767 150.567 82.1214 147.52 81.3241C144.643 80.5728 142.365 81.5913 140.932 80.1157C139.5 78.6421 136.271 67.0813 135.724 61.901C135.177 56.7207 135.629 52.442 135.894 47.1364C136.158 41.8308 133.975 36.2602 134.219 32.0149C134.464 27.7696 132.408 22.3284 135.269 18.0539C138.131 13.7773 142.846 13.3578 143.732 14.0236Z" fill="#FFD1A3"/>
</svg>
