<svg width="104" height="420" viewBox="0 0 104 420" fill="none" xmlns="http://www.w3.org/2000/svg">
<path d="M40.6877 103.428C40.9033 103.601 41.2179 103.566 41.3904 103.35C41.5629 103.135 41.528 102.82 41.3123 102.648L40.6877 103.428ZM37.5011 93.5712C37.586 94.8451 37.8398 96.8515 38.3283 98.75C38.5725 99.6994 38.8787 100.635 39.2584 101.443C39.6347 102.244 40.1017 102.96 40.6877 103.428L41.3123 102.648C40.8983 102.316 40.5111 101.757 40.1635 101.017C39.8192 100.285 39.5316 99.4139 39.2967 98.5009C38.8268 96.6743 38.5806 94.7308 38.4989 93.5047L37.5011 93.5712Z" fill="black"/>
<path d="M33.0001 86.0379C31.4001 82.8379 33.0001 81.0379 34.0001 80.5379L37 89.5379L38 93.5379H37C35.8 93.5379 35.1667 91.5379 35 90.5379C35 90.3713 34.6001 89.2379 33.0001 86.0379Z" stroke="black"/>
<path d="M71.5844 86.0379C73.1844 82.8379 71.5844 81.0379 70.5844 80.5379L67.5845 89.5379L66.5845 93.5379H67.5845C68.7845 93.5379 69.4178 91.5379 69.5845 90.5379C69.5845 90.3713 69.9844 89.2379 71.5844 86.0379Z" stroke="black"/>
<path d="M5.00007 359.538L7.00007 386.038C7.50014 389.038 20 387.038 20 386.038C20 385.238 21 377.705 21.5 374.038L25.5 355.538C25.5 346.538 32.5 325.538 33.5 325.038C34.5 324.538 40 307.038 40 303.538C40 300.038 46.5 269.538 47 269.038C47.4 268.638 49.5 257.205 50.5 251.538L53 252.038V254.538L59 279.038C60.5 287.205 63.5 303.838 63.5 305.038C63.5 306.238 65.5 312.538 66.5 315.538L74.5 337.538L75.5 341.038L79 363.038L82 377.538L82.5 385.538C85.7 388.738 93.5 386.538 97 385.038L97.5 373.038C99.9 362.238 98.1667 346.538 97 340.038L92 320.038C92 317.871 91.8 312.938 91 310.538C90.2 308.138 92.6667 285.205 94 274.038C96 262.038 94.1667 247.371 93 241.538L87.5 215.538L85 209.538L18.5 209.038L14.5 222.538L9.5 248.038L9 254.038C8 255.538 9 287.538 11.5 297.538C13.5 305.538 11.6667 317.871 10.5001 323.038C5.30007 341.838 4.66674 355.205 5.00007 359.538Z" fill="black" stroke="black"/>
<path d="M69.5 65.0379L36 66.0379L34.5 80.5379L33.5 81.0379L32 83.5379L33 87.0379L36.5 93.0379H38L39 99.0379L42.5 105.538L48.5 109.038H54L59.5 106.538L64 102.038L66.5 94.0379L70 90.0379L72 83.5379L71 80.5379L69.5 65.0379Z" fill="#E2B19B" stroke="black"/>
<path d="M39.5 74.5379C37.5 76.1379 37.3334 82.5379 37.5 85.5379L36 86.0379V85.0379L34.5 80.5379C34 78.3713 33 73.8379 33 73.0379C33 72.2379 34 68.7046 34.5 67.0379L36.5 62.5379L39 59.5379C38.6 59.1379 38.5 56.7046 38.5 55.5379C39.3 49.5379 44.5 45.7046 47 44.5379C60.5 42.0379 62 48.0379 63 48.5379C64 49.0379 67 55.0379 67.5 55.5379C67.9 55.9379 67 58.7046 66.5 60.0379C66.5 60.5379 67.1 62.0379 69.5 64.0379C71.9 66.0379 71.8333 73.2046 71.5 76.5379L70.5 79.0379L70 82.5379L68.5 84.5379L68 85.5379V85.0379L67.5 78.0379L64.5 71.0379L62.5 68.5379C62.1 69.3379 58 68.8713 56 68.5379C54 68.9379 48.5 68.3713 46 68.0379C42.4 68.0379 40.1667 72.3713 39.5 74.5379Z" fill="black" stroke="black"/>
<path d="M48.5 82.0379L49.5 81.0379C48.6667 80.3713 46.3 79.0379 43.5 79.0379C40.7 79.0379 39.6667 80.3713 39.5 81.0379C42.7 79.0379 46.8333 80.8713 48.5 82.0379Z" fill="black" stroke="black" stroke-width="0.5"/>
<path d="M56.5 82.5379L55.5 81.5379C56.3333 80.8713 58.7 79.5379 61.5 79.5379C64.3 79.5379 65.3333 80.8713 65.5 81.5379C62.3 79.5379 58.1667 81.3713 56.5 82.5379Z" fill="black" stroke="black" stroke-width="0.5"/>
<path d="M40 85.0379H41.5C42 85.8713 43.8 87.2379 47 86.0379H49" stroke="black" stroke-width="0.5" stroke-linecap="round"/>
<path d="M64.5918 85.2919L63.0971 85.1662C62.529 85.9547 60.6209 87.1658 57.5326 85.702L55.5397 85.5344" stroke="black" stroke-width="0.5" stroke-linecap="round"/>
<path d="M49.4999 91.0379C48.8332 92.0379 47.9999 94.0379 49.9999 94.0379" stroke="black" stroke-width="0.5" stroke-linecap="round"/>
<path d="M56.0001 91.5379C56.6668 92.5379 57.5001 94.5379 55.5001 94.5379" stroke="black" stroke-width="0.5" stroke-linecap="round"/>
<path d="M50 93.0379H51C51.5 94.3713 52.8 96.2379 54 93.0379H55" stroke="black" stroke-width="0.5" stroke-linecap="round"/>
<path d="M49.5 97.5379L47 99.0379C47.3333 99.5379 48.3 100.738 49.5 101.538C51 102.538 52.5 102.038 54 102.038C55.2 102.038 56.8333 100.038 57.5 99.0379H57L54 97.5379H49.5Z" fill="#E06969"/>
<path d="M66.5 93.5379C65.9335 95.8582 64.5405 100.971 63.5001 102.859" stroke="black"/>
<path d="M27.5001 127.538C27.1001 125.938 29.6668 118.871 31.0001 115.538C32.6002 115.138 33.3334 116.038 33.5 116.538C49.1 153.738 64.6667 131.371 70.5 115.538H73C74.5 118.038 77.3 124.138 76.5 128.538C75.7 132.938 81.8333 144.705 85 150.038L79 168.038C71.8 184.438 80 202.538 85 209.538H18C20.1667 205.038 25.1 194.138 27.5001 186.538C29.9002 178.938 23.5001 161.705 20 154.038L24.5 140.038C25.6667 136.538 27.9001 129.138 27.5001 127.538Z" fill="#DB6555" fill-opacity="0.96" stroke="black"/>
<path d="M3.17525 407.538C1.57525 400.338 4.50859 389.871 6.17525 385.538C14.5752 377.938 19.6753 383.705 21.1753 387.538C20.3753 397.538 24.842 407.371 27.1753 411.038C28.7753 415.038 25.1753 417.371 23.1753 418.038C16.3753 419.638 7.0086 417.371 3.17525 416.038C2.67523 415.538 1.47518 414.138 0.675178 412.538C-0.124822 410.938 2.00856 408.538 3.17525 407.538Z" fill="black" stroke="black"/>
<path d="M100.574 406.263C102.174 399.063 99.2407 388.596 97.574 384.263C89.174 376.663 84.074 382.43 82.574 386.263C83.374 396.263 78.9073 406.096 76.574 409.763C74.974 413.763 78.574 416.096 80.574 416.763C87.374 418.363 96.7407 416.096 100.574 414.763C101.074 414.263 102.274 412.863 103.074 411.263C103.874 409.663 101.741 407.263 100.574 406.263Z" fill="black" stroke="black"/>
<path d="M27.5 105C30.3 109 31 113.333 31 115L33.5 115.5L33 116H31L30 118.5C29.524 123.7 24.4683 138 22 144.5L19 154.5L18.5 153.5L16 147.5L12.5 139L10 128.5L8 117.5V105.5L9 93L10.5 80.5L13 67L15 60.5L21.5 47.5L27.5 37C29.5 33.1667 33.7 25.4 34.5 25C35.3 24.6 36.1667 21.5 36.5 20L39 11.5L41.5 7L44 3.5C44.4 2.7 45.5 2.5 46 2.5L47 1.5C47.8 0.7 48.6667 1.5 49 2L49.5 1.5C50.7 1.1 50.6667 2.66667 50.5 3.5C50.9 3.1 51.3333 4.33333 51.5 5L50 12.5C52.4 11.3 53.3333 12 53.5 12.5V12L52.5 4L53 3.5V3C53 1.8 54 1.5 54.5 1.5L55 1.5C55.8 0.699998 56.6667 1.16667 57 1.5L57.5 2.5C57.5 2.1 58.5 2.33333 59 2.5L64 11C64.6667 12 66 14.4 66 16C66 17.6 68 22 69 24C72.6 28.4 84.1667 52.5 89.5 64C90.1667 63.6667 91.9 67.2 93.5 84C95.5 105 90.5 146 85.5 148.5C81.5 150.5 75.5 127 73 115L69 117.5C54 160 29.5 119 34 116C37.6 113.6 40.1667 106.667 41 103.5C49 113.9 58.3333 108.5 62 104.5L61.5 106C61 116 67 115 69 116C70.6 116.8 71.3333 115.667 71.5 115C72.1667 113.333 73.9 109.5 75.5 107.5C77.1 105.5 77.5 96.6667 77.5 92.5L77 76.5C77.4 73.3 75.8333 66.1667 75 63L64.5 36C64.1 32.4 60.3333 29.1667 58.5 28C54.5 26.4 52.5 18.6667 52 15C51.8333 14.6667 51.5 14.2 51.5 15C51.5 15.8 50.8333 18.6667 50.5 20C50.1 23.6 45 28.1667 42.5 30C41.3 30.8 38.6667 36.3333 37.5 39L27 67V70C28 74 26 87 26 87.5V102.5L27.5 105Z" fill="#E2B19B" stroke="black"/>
</svg>
