<svg width="185" height="383" viewBox="0 0 185 383" fill="none" xmlns="http://www.w3.org/2000/svg">
<path d="M81.1877 66.8904C81.4033 67.0629 81.7179 67.028 81.8904 66.8123C82.0629 66.5967 82.028 66.2821 81.8123 66.1096L81.1877 66.8904ZM78.0011 57.0333C78.086 58.3071 78.3398 60.3136 78.8283 62.2121C79.0725 63.1615 79.3787 64.0968 79.7584 64.9048C80.1347 65.7057 80.6017 66.4217 81.1877 66.8904L81.8123 66.1096C81.3983 65.7783 81.0111 65.2193 80.6635 64.4795C80.3192 63.747 80.0316 62.876 79.7967 61.9629C79.3268 60.1364 79.0806 58.1929 78.9989 56.9667L78.0011 57.0333Z" fill="black"/>
<path d="M25.5 20.5L24.5 16.5C24.5 16.3333 24.3 15.9 23.5 15.5C22.7 15.1 22.1667 16 22 16.5C21.6667 14.3333 21.1 9.4 21.5 7C21.9 4.6 20.6667 3.33333 20 3C19.6 2.2 18.8333 2.66667 18.5 3L18 2H17C16.2 1.6 15.6667 2.5 15.5 3L15 2.5C14.2 1.7 13.3333 2.5 13 3C12.6 3 12.1667 6 12 7.5H11.5C10.7 6.3 9.83333 8 9.5 9L7.5 18L7 25C5.5 27 7 32.5 8 33C8.8 33.4 8.33333 37.1667 8 39C6.66667 45.1667 3.8 57.8 3 59C2.2 60.2 1 71.1667 0.5 76.5V90C0.5 92 6.16667 95.5 9 97C14.6 101.4 31.6667 104.167 39.5 105C50.5 104.5 53 105.5 55.5 107C58 108.5 62 123 63 125C64 127 68.5 142 68.5 145.5C68.5 148.3 65.1667 158.333 63.5 163L59 172C83.8 182.8 114 177.5 126 173.5L123 167L121 162C110.5 150.5 124.5 116.5 124.5 114C124.5 112 129.833 107.167 132.5 105L148.5 104.5C164.1 102.5 173.333 98.3333 176 96.5C182 95.7 183.833 90.8333 184 88.5L182.5 64.5L177.5 44.5L176 34C178.4 32.4 178 27.6667 177.5 25.5L176 14.5L175 9C175 8.66667 174.8 7.8 174 7C173.2 6.2 172.667 7 172.5 7.5L171 2.5L170.5 2C170.1 1.6 169.333 2.16667 169 2.5C168.6 0.9 167.167 1.5 166.5 2L166 3.5L165 3C164.2 2.6 163.333 5.16667 163 6.5L162.5 16H162C161.5 15.6667 160.5 15.2 160.5 16C160.5 16.8 159.167 20 158.5 21.5C158.833 23.1667 159.5 26.8 159.5 28C159.5 29.2 162.833 32.1667 164.5 33.5L165 39.5C165.667 44 166.8 53.5 166 55.5C165.2 57.5 165.667 74 166 82L148.5 82.5C144.833 82.3333 136.3 81.5 131.5 79.5C126.7 77.5 115.833 78.3333 111 79C103 77.4 102.667 70 103.5 66.5L102.5 67.5C93.3 77.1 85 71.5 82 67.5C82.4 73.5 77.8333 77.6667 75.5 79L71.5 79.5C70.1667 79.3333 67.2 78.9 66 78.5C64.8 78.1 58.5 78.6667 55.5 79L35 82.5L18 81.5L19 73V44.5L20 33.5L25 28.5L25.5 20.5Z" fill="#E2B19B" stroke="black"/>
<path d="M73.5001 49.5C71.9001 46.3 73.5001 44.5 74.5001 44L77.5 53L78.5 57H77.5C76.3 57 75.6667 55 75.5 54C75.5 53.8333 75.1001 52.7 73.5001 49.5Z" stroke="black"/>
<path d="M112.084 49.5C113.684 46.3 112.084 44.5 111.084 44L108.084 53L107.084 57H108.084C109.284 57 109.918 55 110.084 54C110.084 53.8333 110.484 52.7 112.084 49.5Z" stroke="black"/>
<path d="M45.5001 323L47.5001 349.5C48.0001 352.5 60.5 350.5 60.5 349.5C60.5 348.7 61.5 341.167 62 337.5L66 319C66 310 73 289 74 288.5C75 288 80.5 270.5 80.5 267C80.5 263.5 87 233 87.5 232.5C87.9 232.1 90 220.667 91 215L93.5 215.5V218L99.5 242.5C101 250.667 104 267.3 104 268.5C104 269.7 106 276 107 279L115 301L116 304.5L119.5 326.5L122.5 341L123 349C126.2 352.2 134 350 137.5 348.5L138 336.5C140.4 325.7 138.667 310 137.5 303.5L132.5 283.5C132.5 281.333 132.3 276.4 131.5 274C130.7 271.6 133.167 248.667 134.5 237.5C136.5 225.5 134.667 210.833 133.5 205L128 179L125.5 173L59 172.5L55 186L50 211.5L49.5 217.5C48.5 219 49.5 251 52 261C54 269 52.1667 281.333 51.0001 286.5C45.8001 305.3 45.1667 318.667 45.5001 323Z" fill="black" stroke="black"/>
<path d="M110 28.5L76.5 29.5L75 44L74 44.5L72.5 47L73.5 50.5L77 56.5H78.5L79.5 62.5L83 69L89 72.5H94.5L100 70L104.5 65.5L107 57.5L110.5 53.5L112.5 47L111.5 44L110 28.5Z" fill="#E2B19B" stroke="black"/>
<path d="M80 38C78 39.6 77.8334 46 78 49L76.5 49.5V48.5L75 44C74.5 41.8333 73.5 37.3 73.5 36.5C73.5 35.7 74.5 32.1667 75 30.5L77 26L79.5 23C79.1 22.6 79 20.1667 79 19C79.8 13 85 9.16667 87.5 8C101 5.5 102.5 11.5 103.5 12C104.5 12.5 107.5 18.5 108 19C108.4 19.4 107.5 22.1667 107 23.5C107 24 107.6 25.5 110 27.5C112.4 29.5 112.333 36.6667 112 40L111 42.5L110.5 46L109 48L108.5 49V48.5L108 41.5L105 34.5L103 32C102.6 32.8 98.5 32.3333 96.5 32C94.5 32.4 89 31.8333 86.5 31.5C82.9 31.5 80.6667 35.8333 80 38Z" fill="black" stroke="black"/>
<path d="M89 45.5L90 44.5C89.1667 43.8333 86.8 42.5 84 42.5C81.2 42.5 80.1667 43.8333 80 44.5C83.2 42.5 87.3333 44.3333 89 45.5Z" fill="black" stroke="black" stroke-width="0.5"/>
<path d="M97 46L96 45C96.8333 44.3333 99.2 43 102 43C104.8 43 105.833 44.3333 106 45C102.8 43 98.6667 44.8333 97 46Z" fill="black" stroke="black" stroke-width="0.5"/>
<path d="M80.5 48.5H82C82.5 49.3333 84.3 50.7 87.5 49.5H89.5" stroke="black" stroke-width="0.5" stroke-linecap="round"/>
<path d="M105.092 48.7539L103.597 48.6283C103.029 49.4168 101.121 50.6279 98.0326 49.164L96.0397 48.9965" stroke="black" stroke-width="0.5" stroke-linecap="round"/>
<path d="M89.9999 54.5C89.3332 55.5 88.4999 57.5 90.4999 57.5" stroke="black" stroke-width="0.5" stroke-linecap="round"/>
<path d="M96.5001 55C97.1668 56 98.0001 58 96.0001 58" stroke="black" stroke-width="0.5" stroke-linecap="round"/>
<path d="M90.5 56.5H91.5C92 57.8333 93.3 59.7 94.5 56.5H95.5" stroke="black" stroke-width="0.5" stroke-linecap="round"/>
<path d="M90 61L87.5 62.5C87.8333 63 88.8 64.2 90 65C91.5 66 93 65.5 94.5 65.5C95.7 65.5 97.3333 63.5 98 62.5H97.5L94.5 61H90Z" fill="#E06969"/>
<path d="M107 57C106.434 59.3202 105.04 64.4327 104 66.3208" stroke="black"/>
<path d="M68.0001 91C67.6001 89.4 70.1668 82.3333 71.5001 79C73.1002 78.6 73.8334 79.5 74 80C89.6 117.2 105.167 94.8333 111 79H113.5C115 81.5 117.8 87.6 117 92C116.2 96.4 122.333 108.167 125.5 113.5L119.5 131.5C112.3 147.9 120.5 166 125.5 173H58.5C60.6667 168.5 65.6 157.6 68.0001 150C70.4002 142.4 64.0001 125.167 60.5 117.5L65 103.5C66.1667 100 68.4001 92.6 68.0001 91Z" fill="#DB6555" fill-opacity="0.96" stroke="black"/>
<path d="M43.6753 371C42.0753 363.8 45.0086 353.333 46.6753 349C55.0752 341.4 60.1753 347.167 61.6753 351C60.8753 361 65.342 370.833 67.6753 374.5C69.2753 378.5 65.6753 380.833 63.6753 381.5C56.8753 383.1 47.5086 380.833 43.6753 379.5C43.1752 379 41.9752 377.6 41.1752 376C40.3752 374.4 42.5086 372 43.6753 371Z" fill="black" stroke="black"/>
<path d="M141.074 369.725C142.674 362.525 139.741 352.058 138.074 347.725C129.674 340.125 124.574 345.892 123.074 349.725C123.874 359.725 119.407 369.558 117.074 373.225C115.474 377.225 119.074 379.558 121.074 380.225C127.874 381.825 137.241 379.558 141.074 378.225C141.574 377.725 142.774 376.325 143.574 374.725C144.374 373.125 142.241 370.725 141.074 369.725Z" fill="black" stroke="black"/>
</svg>
