<svg width="283" height="69" viewBox="0 0 283 69" fill="none" xmlns="http://www.w3.org/2000/svg">
<path d="M283 69H0L23.8501 45H259.15L283 69Z" fill="#D9D9D9"/>
<path d="M218.687 9.99501C210.593 11.1513 211 9.40898 205.105 7.90839C199.211 6.40781 198.11 7.53784 184.604 14.2787C171.097 21.0221 165.323 23.2769 161.018 21.3821C156.711 19.4847 151.371 13.2485 144.985 13.0015C138.601 12.7518 133.771 18.218 131.051 19.4979C128.331 20.7803 116.295 22.1758 107.465 25.0114C98.6373 27.847 97.9961 26.6854 92.7427 25.1559C87.4894 23.6238 84.2622 25.7236 72.1208 28.5618C58.563 31.7338 53.5645 29.8075 53.7406 27.9443C53.8168 27.1427 48.8999 26.0284 44.9368 25.2926C40.9733 24.5568 38.8906 22.4701 37.6967 25.4477C36.5036 28.4252 35.1179 37.1869 36.7346 37.9963C38.3527 38.8058 40.258 39.7203 38.4449 40.7268C36.6321 41.736 38.1873 47.2416 38.2541 50.4714C38.3209 53.7013 46.0485 58.0007 48.3191 57.3831C50.587 56.7655 53.0284 53.2782 50.6685 52.5239C47.2863 51.4464 46.7554 44.7214 50.1245 43.6702C53.4936 42.6164 51.6146 41.5862 51.5699 40.0278C51.5252 38.4694 61.5826 38.3222 72.0867 39.3682C82.5908 40.4141 95.0317 39.8727 98.5138 40.3326C99.9408 40.5219 100.932 40.4009 101.809 40.2827C103.073 40.1092 104.109 39.9384 105.891 40.6821C108.913 41.9436 125.178 44.908 135.237 43.4731C145.295 42.0356 154.417 37.8492 159.73 39.5705C165.044 41.2919 177.577 40.8872 183.763 40.0462C189.95 39.2 198.186 36.9346 202.724 33.9151C207.263 30.8929 209.121 23.1534 212.077 21.482C215.034 19.8106 218.616 20.6778 220.884 21.2507C223.152 21.8236 218.687 9.99501 218.687 9.99501Z" fill="#FFD1A3"/>
<path d="M53.7564 28.144L53.7406 27.9443C53.8168 27.1427 48.8999 26.0284 44.9368 25.2926C40.9733 24.5568 38.8906 22.4701 37.6967 25.4477C36.5036 28.4252 35.1179 37.1869 36.7346 37.9963C36.7346 38.8426 36.7346 38.8426 36.7346 41C34.9218 42.0092 38.1873 47.2416 38.2541 50.4714C38.3209 53.7013 46.0485 58.0007 48.3191 57.3831C50.587 56.7655 53.0284 53.2782 50.6659 52.5239C47.2863 51.4464 46.7581 44.7214 50.1245 43.6702C51.5463 43.2261 52.9133 42.9757 53 42.5C53.2286 41.8877 51.3912 39.2814 51.152 38.8426C52.0403 38.5193 50.3636 37.4024 51.152 38.8426C50.2638 39.1658 52.65 30.567 53.7564 28.144Z" fill="#4C280B"/>
<path d="M168.566 21.3033C165.325 22.2363 163.008 22.2573 161.018 21.3822C156.711 19.4848 151.371 13.2485 144.985 13.0015C138.601 12.7518 133.771 18.218 131.051 19.4979C128.331 20.7803 116.295 22.1758 107.465 25.0114C106.537 25.311 105.715 25.5554 104.952 25.7683C105.205 31.3738 105.565 36.6587 105.872 40.6743L105.891 40.6822C108.913 41.9436 125.178 44.908 135.238 43.4731C145.295 42.0356 154.417 37.8492 159.73 39.5705C161.394 40.1093 163.77 40.4404 166.432 40.6138C167.105 35.2816 168.122 26.8431 168.566 21.3033Z" fill="#4C280B"/>
<path d="M203.876 7.91628C199.447 5.97944 198.039 7.572 184.605 14.2786C171.097 21.0221 159.47 20.5753 158.65 20.0313L159.41 39.4916L159.73 39.5705C165.044 41.2918 177.577 40.8871 183.764 40.0462C189.95 39.2 199.765 38.585 203.697 34.8112C215.978 23.022 209.676 10.4549 203.876 7.91628Z" fill="#F0A050"/>
<path d="M240.526 20.2942C238.087 22.6094 235.094 24.6698 234.318 25.0035C233.543 25.3346 232.815 24.2283 231.824 24.9483C230.834 25.671 229.52 27.0902 228.587 28.4357C227.677 29.7497 226.865 29.3607 226.358 28.3253C225.851 27.2899 225.83 27.3372 225.06 27.6289C224.287 27.9232 224.329 27.8312 224.101 27.5343C223.875 27.2373 223.231 27.8654 222.91 27.5264C222.59 27.1874 222.048 26.9719 221.184 27.2242C220.322 27.4738 219.612 28.1282 218.879 26.9114C218.148 25.6921 218.44 21.8893 217.194 21.2612C215.349 20.3362 211.725 20.3782 211.725 20.3782L211.594 10.4339C211.594 10.4339 215.373 10.221 216.422 9.74537C217.468 9.2697 223.431 3.66945 225.932 2.98617C228.434 2.30289 233.173 1.65377 237.369 4.42894C241.569 7.2041 244.047 16.9513 240.526 20.2942Z" fill="#FFD1A3"/>
<path d="M242.428 13.7793C242.723 17.0039 240.817 20.5648 240.242 21.4741C239.666 22.3807 239.585 22.8748 239.585 22.8748C239.585 22.8748 239.511 23.5923 239.33 22.2047C239.148 20.8145 238.938 22.8879 238.783 22.6803C238.625 22.4701 238.61 20.6095 237.913 19.5845C237.217 18.557 236.439 18.126 236.376 18.5701C236.316 19.0169 235.908 17.9421 235.065 17.5347C234.218 17.13 233.038 17.9605 232.197 17.6661C231.359 17.3718 229.191 18.7331 228.776 18.0472C228.363 17.3613 228.064 16.4756 229.709 15.3535C231.354 14.2313 229.202 12.7071 227.407 13.4298C225.609 14.1499 225.559 15.1275 223.638 13.7083C221.72 12.2919 218.009 10.5364 216.847 10.2709C215.688 10.0029 215.108 8.95956 215.108 8.95956C215.108 8.95956 216.167 8.95168 216.422 8.75983C216.674 8.56799 222.884 1.49606 227.922 0.295063C232.96 -0.903304 239.892 1.42245 241.992 9.59815C242.762 12.5941 243.051 14.8174 242.728 14.5651C242.402 14.3154 242.428 13.7793 242.428 13.7793Z" fill="#3D311E"/>
<path d="M124.97 32.9558C124.97 32.9558 125.446 31.6418 134.352 27.5553C138.252 25.7656 142.12 25.0981 145.82 25.0981C150.567 25.0981 155.037 26.1966 158.939 27.4476L159.137 32.4907C159.123 32.4854 151.163 28.8246 144.27 27.2347C143.592 27.0796 142.864 27.0087 142.097 27.0087C135.056 27.0087 124.97 32.9558 124.97 32.9558Z" fill="#A27C56"/>
<path d="M203.639 47.197C203.547 47.197 203.455 47.197 203.366 47.197L207.542 32.3041C207.542 32.3172 207.542 32.3277 207.542 32.3409C207.542 33.0872 207.636 33.6312 207.92 33.8467C209.124 34.7665 222.576 36.9609 228.595 37.5259C229.675 37.6284 230.589 37.6757 231.37 37.6757C234.946 37.6757 235.782 36.6955 237.233 35.4735C238.331 34.5537 239.916 34.3119 241.099 34.3119C241.826 34.3119 242.399 34.4012 242.615 34.4827C243.18 34.6956 243.322 35.4735 243.322 35.4735C243.322 35.4735 245.942 35.6863 246.013 36.9609C246.039 37.4234 246.092 38.3459 246.094 39.3681C246.094 41.1578 245.929 43.2629 245.164 43.7569C244.486 44.1984 243.133 44.569 241.537 44.569C240.3 44.569 238.917 44.3456 237.588 43.7569C236.931 43.4678 235.916 43.3443 234.639 43.3443C230.011 43.3443 221.938 44.9553 215 45.9539C210.083 46.6609 206.359 47.197 203.639 47.197Z" fill="#E5BC92"/>
<path d="M198.123 11.5534C203.855 11.8635 210.372 13.5376 210.585 20.4755C210.798 27.4134 209.026 29.6814 209.665 34.8506C210.301 40.0173 208.249 46.603 209.452 47.5228C210.656 48.4453 224.109 50.6396 230.129 51.2047C236.147 51.7723 236.996 50.6396 238.768 49.1522C240.536 47.6647 243.582 47.9486 244.147 48.1615C244.715 48.3743 244.857 49.1522 244.857 49.1522C244.857 49.1522 247.477 49.3651 247.548 50.6396C247.616 51.9142 247.9 56.6577 246.696 57.4383C245.493 58.2162 242.166 58.7812 239.12 57.4383C236.076 56.0901 225.383 58.3581 216.532 59.6326C207.684 60.9046 202.585 61.6851 200.53 59.6326C198.478 57.5775 197.203 45.0446 196.565 39.3103C195.929 33.5734 197.771 30.2464 194.512 27.7682C191.256 25.29 190.688 18.6359 191.892 15.5191C193.096 12.4049 197.087 11.4982 198.123 11.5534Z" fill="#FFD1A3"/>
</svg>
