<svg width="157" height="103" viewBox="0 0 157 103" fill="none" xmlns="http://www.w3.org/2000/svg">
<g clip-path="url(#clip0_1_31)">
<path d="M141.205 79.8221H81.276H74.979H15.051L0 102.636H74.979H81.276H156.256L141.205 79.8221Z" fill="#D9D9D9"/>
<path d="M101.794 37.4011C100.923 49.6001 101.239 58.3931 103.854 68.2161C106.468 78.0391 108.212 87.6241 109.242 88.2581C110.272 88.8921 122.866 89.6831 126.511 87.5441C130.156 85.4061 118.986 83.4251 113.282 83.1081C111.776 73.7601 109.162 49.5201 111.934 38.9841C110.27 38.7481 101.794 37.4011 101.794 37.4011Z" fill="#D18449"/>
<path d="M73.093 62.5401C73.762 71.3571 72.982 87.6641 70.194 91.1671C67.406 94.6701 41.311 90.8051 33.171 85.1271C29.714 83.6781 16.778 91.1671 15.441 90.2001C14.102 89.2341 23.442 73.0381 28.6 71.8411C31.721 71.1161 31.944 77.8801 36.517 77.3981C41.089 76.9151 60.046 78.1231 60.046 78.1231C58.932 70.0301 59.712 55.8981 59.712 55.8981C59.712 55.8981 64.841 62.5401 73.093 62.5401Z" fill="#D18449"/>
<path d="M74.979 69.8001C75.692 78.4741 74.86 94.5161 71.889 97.9621C68.918 101.407 41.114 97.6051 32.439 92.0211C28.755 90.5941 14.971 97.9621 13.545 97.0111C12.119 96.0611 22.071 80.1271 27.566 78.9501C30.893 78.2371 31.131 84.8911 36.002 84.4161C40.874 83.9411 61.074 85.1291 61.074 85.1291C59.886 77.1681 60.718 63.2661 60.718 63.2661C60.718 63.2661 66.186 69.8001 74.979 69.8001Z" fill="#FFA764"/>
<path d="M63.69 33.7961C59.532 38.1921 55.491 52.9271 54.778 61.3631C58.343 68.7301 68.919 76.6911 76.88 71.7011C76.762 63.2641 77.792 57.3621 77.792 57.0061C77.792 56.6501 67.612 44.0151 63.69 33.7961Z" fill="#4C280B"/>
<path d="M104.64 26.4021C103.112 27.8751 102.091 37.9621 100.961 39.2241L104.677 43.7771C104.783 38.7391 113.705 41.4341 118.052 32.7001C118.731 30.7061 119.881 29.0431 121.93 25.4561C124.725 29.7101 128.725 28.9531 132.777 22.7001C136.829 16.4481 141.507 1.7831 125.74 0.0401009C121.729 -0.294899 117.653 1.4491 116.845 6.9601C114.229 24.7861 110.476 20.7841 104.64 26.4021Z" fill="#FFA764"/>
<path d="M135.419 16.9951C135.137 18.8001 134.369 24.2521 134.023 24.1671C133.678 24.0791 131.014 22.8501 131.014 22.8501L135.419 16.9951Z" fill="#FFA764"/>
<path d="M134.29 6.3241C131.871 10.1131 123.997 11.8601 123.997 11.8601C123.834 14.9001 122.973 16.6871 122.973 16.6871C121.783 16.5411 120.93 15.3981 120.93 15.3981C121.439 13.7141 121.858 11.1061 120.46 10.0671C119.063 9.0251 116.947 12.9751 117.811 15.1961C117.57 16.9621 115.415 17.7031 113.537 17.9611C115.752 13.9131 116.49 10.1481 116.846 6.9601C117.46 1.4241 121.73 -0.294901 125.741 0.0400994C135.132 1.0781 137.268 6.7011 136.607 12.3961C134.766 9.9721 134.29 6.3241 134.29 6.3241Z" fill="#603813"/>
<path d="M121.93 25.4561C121.615 26.0071 121.329 26.4971 121.055 26.9691C119.886 24.1681 117.76 18.9601 119.023 21.0901C120.125 22.9521 122.896 26.0721 125.043 28.0011C123.901 27.7021 122.849 26.8561 121.93 25.4561Z" fill="#D18449"/>
<path d="M110.864 21.5571C112.885 30.4691 120.014 29.2811 120.014 29.2811C119.182 37.5981 112.765 46.3911 112.765 46.3911C107.418 53.1641 98.229 56.0561 77.632 58.5911C70.621 53.4821 59.412 46.5101 63.572 32.3691C80.327 25.4781 85.991 40.7271 110.864 21.5571Z" fill="#F0A050"/>
<path d="M107.022 42.7481C106.151 54.9471 106.467 63.7401 109.081 73.5631C111.695 83.3861 113.439 92.9721 114.469 93.6051C115.498 94.2391 128.093 95.0301 131.738 92.8921C135.383 90.7531 124.213 88.7721 118.509 88.4551C117.004 79.1081 114.39 54.8671 117.162 44.3311C115.499 44.0941 107.022 42.7481 107.022 42.7481Z" fill="#FFA764"/>
<path d="M110.627 25.8341C115.499 23.8141 120.489 26.0721 118.588 43.3021C117.044 48.1741 105.636 46.0341 105.636 46.0341C104.329 41.2821 105.517 28.5681 110.627 25.8341Z" fill="#A66D2A"/>
</g>
<defs>
<clipPath id="clip0_1_31">
<rect width="156.256" height="102.636" fill="white"/>
</clipPath>
</defs>
</svg>
