<svg width="157" height="88" viewBox="0 0 157 88" fill="none" xmlns="http://www.w3.org/2000/svg">
<g clip-path="url(#clip0_1_17)">
<path d="M141.205 64.2762H81.277H74.979H15.051L0 87.0902H74.979H81.277H156.256L141.205 64.2762Z" fill="#D9D9D9"/>
<path d="M101.794 21.8552C100.923 34.0542 101.239 42.8472 103.854 52.6702C106.468 62.4932 108.211 72.0782 109.241 72.7122C110.271 73.3462 122.865 74.1372 126.511 71.9982C130.156 69.8602 118.986 67.8792 113.282 67.5622C111.777 58.2142 109.163 33.9742 111.935 23.4382C110.271 23.2022 101.794 21.8552 101.794 21.8552Z" fill="#D18449"/>
<path d="M73.093 46.9942C73.762 55.8112 72.982 72.1182 70.194 75.6212C67.405 79.1242 41.311 75.2592 33.17 69.5812C29.713 68.1322 16.777 75.6212 15.439 74.6542C14.101 73.6882 23.441 57.4922 28.598 56.2952C31.72 55.5702 31.943 62.3342 36.516 61.8522C41.088 61.3692 60.045 62.5772 60.045 62.5772C58.93 54.4842 59.711 40.3522 59.711 40.3522C59.711 40.3522 64.841 46.9942 73.093 46.9942Z" fill="#D18449"/>
<path d="M74.979 54.2542C75.692 62.9282 74.861 78.9702 71.89 82.4162C68.919 85.8612 41.114 82.0592 32.44 76.4752C28.756 75.0482 14.972 82.4162 13.546 81.4652C12.12 80.5152 22.071 64.5812 27.568 63.4042C30.895 62.6912 31.132 69.3452 36.004 68.8702C40.876 68.3952 61.076 69.5832 61.076 69.5832C59.888 61.6222 60.72 47.7202 60.72 47.7202C60.72 47.7202 66.186 54.2542 74.979 54.2542Z" fill="#FFA764"/>
<path d="M63.691 18.2502C59.532 22.6462 55.492 37.3812 54.779 45.8172C58.343 53.1842 68.92 61.1452 76.881 56.1552C76.763 47.7182 77.119 44.2722 77.119 43.9162C77.119 43.5602 67.612 28.4692 63.691 18.2502Z" fill="#4C280B"/>
<path d="M108.013 5.5352C105.896 5.3802 97.705 11.3552 96.011 11.3572L102.547 29.3002C106.368 26.0142 111.067 20.7552 112.279 19.7242C114.216 18.8982 116.222 18.6442 120.261 17.7732C118.959 22.6962 122.195 25.1692 129.554 24.0092C136.913 22.8512 150.955 16.5432 141.726 3.6422C139.298 0.431201 135.278 -1.4378 130.636 1.6392C115.617 11.5962 116.093 6.1292 108.013 5.5352Z" fill="#FFA764"/>
<path d="M135.566 22.1682C134.034 23.1642 129.462 26.2322 129.295 25.9182C129.131 25.6032 128.269 22.7992 128.269 22.7992L135.566 22.1682Z" fill="#FFA764"/>
<path d="M142.755 14.2032C138.32 14.9312 131.763 10.2352 131.763 10.2352C129.391 12.1452 127.486 12.6982 127.486 12.6982C126.801 11.7132 127.081 10.3152 127.081 10.3152C128.674 9.5692 130.895 8.14021 130.737 6.40621C130.581 4.67121 126.227 5.7332 125.15 7.8582C123.673 8.8582 121.683 7.7492 120.238 6.5232C124.73 5.4682 128.026 3.50221 130.637 1.63921C135.169 -1.59779 139.299 0.431207 141.727 3.64221C147.225 11.3262 144.464 16.6702 139.783 19.9802C140.359 16.9942 142.755 14.2032 142.755 14.2032Z" fill="#603813"/>
<path d="M120.261 17.7742C119.642 17.9092 119.085 18.0232 118.551 18.1322C119.857 15.3942 122.315 10.3352 121.571 12.6962C120.921 14.7592 120.448 18.9042 120.446 21.7912C119.906 20.7432 119.832 19.3962 120.261 17.7742Z" fill="#D18449"/>
<path d="M116.33 6.4872C115.38 9.3392 116.449 15.7552 116.449 15.7552C115.617 22.1722 111.933 30.3712 111.933 30.3712C106.586 37.1432 93.039 33.6982 78.543 45.4622C71.532 40.3532 59.412 30.9652 63.57 16.8242C70.582 12.9032 102.309 1.4952 116.33 6.4872Z" fill="#F0A050"/>
<path d="M107.022 27.2022C106.152 39.4012 106.468 48.1942 109.083 58.0172C111.697 67.8402 113.44 77.4262 114.47 78.0592C115.499 78.6932 128.094 79.4842 131.738 77.3462C135.383 75.2072 124.214 73.2262 118.509 72.9092C117.003 63.5622 114.39 39.3212 117.162 28.7852C115.498 28.5482 107.022 27.2022 107.022 27.2022Z" fill="#FFA764"/>
<path d="M110.627 10.2882C115.498 8.2682 120.489 10.5262 118.588 27.7562C117.043 32.6282 105.636 30.4882 105.636 30.4882C104.329 25.7362 105.517 13.0222 110.627 10.2882Z" fill="#A66D2A"/>
</g>
<defs>
<clipPath id="clip0_1_17">
<rect width="156.256" height="87.0902" fill="white"/>
</clipPath>
</defs>
</svg>
