<svg width="157" height="85" viewBox="0 0 157 85" fill="none" xmlns="http://www.w3.org/2000/svg">
<g clip-path="url(#clip0_1_2)">
<path d="M141.205 61.3584H81.276H74.979H15.05L-3.05176e-05 84.1724H74.979H81.276H156.255L141.205 61.3584Z" fill="#D9D9D9"/>
<path d="M101.794 18.9374C100.923 31.1364 101.239 39.9294 103.854 49.7524C106.468 59.5754 108.211 69.1604 109.242 69.7944C110.271 70.4284 122.866 71.2194 126.51 69.0804C130.155 66.9424 118.985 64.9614 113.281 64.6444C111.775 55.2964 109.161 31.0564 111.933 20.5204C110.27 20.2844 101.794 18.9374 101.794 18.9374Z" fill="#D18449"/>
<path d="M73.092 44.0764C73.761 52.8934 72.981 69.2004 70.193 72.7034C67.405 76.2064 41.31 72.3414 33.17 66.6634C29.713 65.2144 16.776 72.7034 15.438 71.7364C14.1 70.7704 23.44 54.5744 28.597 53.3774C31.719 52.6524 31.942 59.4164 36.515 58.9344C41.087 58.4514 60.044 59.6594 60.044 59.6594C58.929 51.5664 59.71 37.4344 59.71 37.4344C59.71 37.4344 64.84 44.0764 73.092 44.0764Z" fill="#D18449"/>
<path d="M74.979 51.3364C75.692 60.0104 74.86 76.0524 71.889 79.4984C68.918 82.9434 41.113 79.1414 32.439 73.5574C28.755 72.1304 14.971 79.4984 13.545 78.5474C12.119 77.5974 22.071 61.6634 27.566 60.4864C30.893 59.7734 31.13 66.4274 36.003 65.9524C40.875 65.4774 61.075 66.6654 61.075 66.6654C59.887 58.7044 60.719 44.8024 60.719 44.8024C60.719 44.8024 66.185 51.3364 74.979 51.3364Z" fill="#FFA764"/>
<path d="M63.69 15.3324C59.531 19.7284 55.491 34.4634 54.778 42.8994C58.343 50.2664 68.919 58.2274 76.88 53.2374C76.762 44.8004 77.712 38.1464 77.712 37.7904C77.711 37.4344 67.612 25.5514 63.69 15.3324Z" fill="#4C280B"/>
<path d="M117.875 6.89544C115.943 6.01744 104.259 2.26344 102.784 1.42944L97.012 20.7564C101.958 19.7844 108.639 17.5274 110.201 17.2294C112.294 17.4654 114.165 18.2344 118.107 19.4694C114.545 23.1104 116.14 26.8564 123.113 29.4784C130.086 32.1014 145.413 33.5434 143.749 17.7684C143.222 13.7764 140.647 10.1664 135.092 10.5544C117.116 11.8044 120.489 8.08344 117.875 6.89544Z" fill="#FFA764"/>
<path d="M129.25 30.8424C127.427 30.9514 121.937 31.3664 121.945 31.0104C121.959 30.6554 122.591 27.7904 122.591 27.7904L129.25 30.8424Z" fill="#FFA764"/>
<path d="M139.434 27.4614C135.218 25.9054 131.83 18.5864 131.83 18.5864C128.824 19.0784 126.894 18.6184 126.894 18.6184C126.785 17.4244 127.718 16.3464 127.718 16.3464C129.471 16.4844 132.109 16.3364 132.827 14.7494C133.546 13.1634 129.235 11.9394 127.25 13.2564C125.473 13.3984 124.289 11.4514 123.637 9.67144C128.065 10.9714 131.901 10.8874 135.091 10.5544C140.629 9.97444 143.221 13.7764 143.748 17.7684C144.74 27.1634 139.702 30.4514 133.997 31.0194C135.972 28.7064 139.434 27.4614 139.434 27.4614Z" fill="#603813"/>
<path d="M118.107 19.4694C117.501 19.2814 116.961 19.1054 116.442 18.9384C118.929 17.2004 123.563 14.0124 121.752 15.6994C120.168 17.1734 117.712 20.5464 116.286 23.0554C116.333 21.8764 116.933 20.6684 118.107 19.4694Z" fill="#D18449"/>
<path d="M118.231 6.89544C117.281 9.74844 116.449 12.8364 116.449 12.8364C115.617 19.2534 111.933 27.4524 111.933 27.4524C106.586 34.2244 87.812 19.1344 77.949 40.0484C70.938 34.9384 59.413 28.0464 63.571 13.9054C81.395 -1.65956 103.972 -4.39256 118.231 6.89544Z" fill="#F0A050"/>
<path d="M107.022 24.2844C106.151 36.4834 106.467 45.2764 109.082 55.0994C111.696 64.9224 113.439 74.5084 114.469 75.1414C115.499 75.7754 128.093 76.5664 131.739 74.4284C135.384 72.2894 124.214 70.3084 118.51 69.9914C117.004 60.6444 114.391 36.4034 117.163 25.8674C115.499 25.6304 107.022 24.2844 107.022 24.2844Z" fill="#FFA764"/>
<path d="M110.626 7.37043C115.498 5.35043 120.488 7.60844 118.587 24.8384C117.042 29.7104 105.635 27.5704 105.635 27.5704C104.329 22.8184 105.517 10.1044 110.626 7.37043Z" fill="#A66D2A"/>
</g>
<defs>
<clipPath id="clip0_1_2">
<rect width="156.255" height="84.1724" fill="white"/>
</clipPath>
</defs>
</svg>
