<svg width="208" height="66" viewBox="0 0 208 66" fill="none" xmlns="http://www.w3.org/2000/svg">
<g clip-path="url(#clip0_2_70)">
<path d="M187.563 45.3334H109.688H101.188H20.313L1.52588e-05 65.5484H101.188H109.688H207.875L187.563 45.3334Z" fill="#D9D9D9"/>
<path d="M55.202 45.4784C53.771 37.8554 60.777 33.1114 71.403 31.7424C82.029 30.3754 98.111 22.8144 111.459 18.1814C124.808 13.5504 126.668 14.3204 126.743 16.4864C126.818 18.6524 122.395 20.9724 113.964 23.0994C105.532 25.2244 101.14 28.3784 91.031 35.0664C80.922 41.7514 59.19 54.6794 55.202 45.4784Z" fill="#D18449"/>
<path d="M119.417 13.9004C123.764 10.4684 132.319 -0.574593 138.088 0.0234071C148.35 1.08741 159.698 32.4414 166.339 37.8844C172.979 43.3254 181.551 44.6284 181.792 46.9934C181.792 49.8334 154.386 48.5324 154.266 46.9934C154.145 45.4564 153.42 40.0134 152.938 38.3564C152.455 36.7004 135.432 21.3194 133.983 17.7704C124.325 26.5244 118.168 30.5474 118.168 30.5474L119.417 13.9004Z" fill="#D18449"/>
<path d="M99.792 33.2754C105.042 31.4004 118.167 12.1504 123.792 9.65042C123.917 11.4004 130.167 24.2754 130.167 24.2754C124.542 35.2754 104.292 44.9004 104.292 44.9004L99.792 33.2754Z" fill="#301907"/>
<path d="M122.167 17.7754C126.667 14.1504 135.944 4.51743 141.917 5.15043C152.542 6.27543 164.292 39.4004 171.167 45.1504C178.042 50.9004 186.917 52.2754 187.167 54.7754C187.167 57.7754 158.792 56.4004 158.667 54.7754C158.542 53.1504 157.792 47.4004 157.292 45.6504C156.792 43.9004 139.167 27.6504 137.667 23.9004C134.959 31.6504 124.584 39.5254 124.584 39.5254L122.167 17.7754Z" fill="#FFA764"/>
<path d="M105.167 57.4004C121.042 63.2754 130.417 49.5254 135.042 44.5254C134.167 40.2754 125.042 21.1504 123.042 14.5254C120.792 13.9004 106.667 33.9004 102.042 36.2754C102.042 36.2754 102.167 52.7754 105.167 57.4004Z" fill="#4C280B"/>
<path d="M58.249 54.1564C60.444 54.5584 69.691 49.2444 71.464 49.4354L73.075 43.4664C68.704 46.4664 65.535 37.1874 55.404 38.8294C53.284 39.4744 51.157 39.5114 46.835 39.9604C48.757 34.9624 45.656 32.0074 37.827 32.3804C29.998 32.7514 14.595 37.7494 22.777 52.2944C24.95 55.9274 28.941 58.3414 34.146 55.6494C50.986 46.9504 49.867 52.6134 58.249 54.1564Z" fill="#FFA764"/>
<path d="M31.33 33.6204C33.046 32.7554 38.177 30.0674 38.316 30.4134C38.452 30.7634 39.035 33.7944 39.035 33.7944L31.33 33.6204Z" fill="#FFA764"/>
<path d="M22.903 41.1304C27.625 40.8744 33.948 46.5324 33.948 46.5324C36.645 44.8054 38.701 44.4464 38.701 44.4464C39.305 45.5524 38.853 46.9834 38.853 46.9834C37.102 47.5814 34.616 48.8214 34.584 50.6554C34.55 52.4874 39.224 51.8724 40.593 49.7724C42.249 48.8954 44.204 50.2824 45.576 51.7294C40.759 52.3194 37.088 53.9994 34.145 55.6494C29.037 58.5204 24.949 55.9264 22.776 52.2944C17.903 43.6324 21.398 38.3564 26.67 35.4294C25.729 38.4864 22.903 41.1304 22.903 41.1304Z" fill="#603813"/>
<path d="M46.835 39.9604C47.499 39.8924 48.093 39.8354 48.664 39.7784C46.987 42.4954 43.841 47.5074 44.887 45.1224C45.803 43.0384 46.769 38.7574 47.101 35.7394C47.545 36.8984 47.468 38.3144 46.835 39.9604Z" fill="#D18449"/>
<path d="M51.667 39.7754C57.792 35.2754 64.503 31.2344 73.502 32.2344C82.501 33.2344 95.334 36.0664 102.501 32.2344C103.501 38.7344 110.501 53.5664 107.501 60.7344C106.168 62.7344 102.335 59.9004 89.335 62.2344C76.335 64.5664 51.335 65.7324 49.835 53.4004C49.292 50.1504 49.417 50.9004 49.417 50.9004C55.417 47.4004 60.667 36.7754 51.667 39.7754Z" fill="#A66D2A"/>
<path d="M53.001 54.7344C51.834 47.0664 59 42.5664 69.667 41.5664C80.334 40.5664 96.668 33.5664 110.168 29.4004C123.668 25.2344 125.501 26.0664 125.501 28.2344C125.501 30.4004 121.001 32.5664 112.501 34.4004C104.001 36.2344 99.502 39.2344 89.168 45.5664C78.834 51.9004 56.668 64.0664 53.001 54.7344Z" fill="#FFA764"/>
<path d="M71.042 40.4004C70.542 47.0254 73.667 52.9004 76.168 53.5664C64.334 61.7344 53.167 60.0664 52.334 55.5664C51.501 51.0664 51.417 44.5254 71.042 40.4004Z" fill="#F0A050"/>
</g>
<defs>
<clipPath id="clip0_2_70">
<rect width="207.875" height="65.5484" fill="white"/>
</clipPath>
</defs>
</svg>
