<svg width="208" height="74" viewBox="0 0 208 74" fill="none" xmlns="http://www.w3.org/2000/svg">
<g clip-path="url(#clip0_2_86)">
<path d="M187.563 53.7861H109.688H101.188H20.313L0 74.0011H101.188H109.688H207.875L187.563 53.7861Z" fill="#D9D9D9"/>
<path d="M54.437 33.9871C55.1 26.2601 63.122 23.5651 73.725 25.0941C84.33 26.6211 101.85 23.6451 115.95 22.7601C130.052 21.8731 131.638 23.1141 131.131 25.2191C130.622 27.3271 125.74 28.3771 117.048 28.1681C108.354 27.9571 103.278 29.8181 91.746 33.5531C80.215 37.2881 55.814 43.9211 54.437 33.9871Z" fill="#D18449"/>
<path d="M77.325 25.2201C74.277 31.1221 74.86 37.7511 76.902 39.3411C62.815 42.2381 53.187 36.3391 54.179 31.8721C55.171 27.4031 57.649 21.3491 77.325 25.2201Z" fill="#F0A050"/>
<path d="M119.417 22.3531C123.764 18.9211 132.319 7.8781 138.088 8.4761C148.35 9.5401 159.698 40.8941 166.339 46.3371C172.979 51.7781 181.551 53.0811 181.792 55.4461C181.792 58.2861 154.386 56.9851 154.266 55.4461C154.145 53.9091 153.42 48.4661 152.938 46.8091C152.455 45.1531 135.432 29.7721 133.983 26.2231C124.325 34.9771 118.168 39.0001 118.168 39.0001L119.417 22.3531Z" fill="#D18449"/>
<path d="M99.792 41.7281C105.042 39.8531 118.167 20.6031 123.792 18.1031C123.917 19.8531 130.167 32.7281 130.167 32.7281C124.542 43.7281 104.292 53.3531 104.292 53.3531L99.792 41.7281Z" fill="#301907"/>
<path d="M122.167 26.2281C126.667 22.6031 135.944 12.9701 141.917 13.6031C152.542 14.7281 164.292 47.8531 171.167 53.6031C178.042 59.3531 186.917 60.7281 187.167 63.2281C187.167 66.2281 158.792 64.8531 158.667 63.2281C158.542 61.6031 157.792 55.8531 157.292 54.1031C156.792 52.3531 139.167 36.1031 137.667 32.3531C131.543 41.1031 121.543 51.3531 121.543 51.3531L122.167 26.2281Z" fill="#FFA764"/>
<path d="M122.12 28.1011L121.98 33.7221C129.23 33.6611 133.302 32.5991 133.752 30.6831C134.203 28.7671 132.927 27.5771 122.12 28.1011Z" fill="#D18449"/>
<path d="M105.167 65.8531C121.042 71.7281 130.417 57.9781 135.042 52.9781C134.167 48.7281 125.042 29.6031 123.042 22.9781C120.792 22.3531 106.667 42.3531 102.042 44.7281C102.042 44.7281 102.167 61.2281 105.167 65.8531Z" fill="#4C280B"/>
<path d="M50.849 39.8251C52.157 41.6341 62.514 44.1801 63.664 45.5441L68.951 42.3431C63.719 41.4911 67.84 32.5951 59.381 26.7821C57.404 25.7821 56.585 22.5181 55.867 20.8991C61.09 19.7211 61.826 15.5031 57.166 9.20009C52.51 2.89509 39.8 -7.13789 32.248 7.74511C30.434 11.5691 30.645 16.2291 35.771 19.0631C52.359 28.2341 45.856 32.9191 50.849 39.8251Z" fill="#FFA764"/>
<path d="M52.525 4.48611C54.199 5.43311 59.285 8.20711 59.074 8.51511C58.859 8.82211 56.662 10.9901 56.662 10.9901L52.525 4.48611Z" fill="#FFA764"/>
<path d="M41.6 1.64912C44.436 5.43412 43.243 13.8351 43.243 13.8351C46.179 15.1181 47.62 16.6281 47.62 16.6281C47.034 17.7451 45.595 18.1631 45.595 18.1631C44.124 17.0401 41.712 15.6611 40.171 16.6531C38.626 17.6411 41.733 21.1861 44.241 21.1611C45.889 22.0501 45.823 24.4461 45.382 26.3911C42.214 22.7111 38.78 20.5921 35.773 19.0631C30.548 16.4091 30.435 11.5691 32.25 7.74513C36.748 -1.11787 43.074 -1.14387 48.438 1.61613C45.37 2.52813 41.6 1.64912 41.6 1.64912Z" fill="#603813"/>
<path d="M55.867 20.8991C55.996 21.1801 56.183 21.6331 56.449 22.3831C53.258 22.4961 47.927 22.6021 50.492 22.1471C52.734 21.7511 56.83 20.1761 59.523 18.7761C58.807 19.7901 57.586 20.5131 55.867 20.8991Z" fill="#D18449"/>
<path d="M48.032 35.6301C51.904 48.8881 66.679 61.3041 81.072 63.5131C95.466 65.7201 107.61 66.4561 107.61 66.4561C102.335 55.8521 104.043 41.7271 104.043 41.7271C97.45 40.3251 79.669 25.0181 59.835 26.5181C58.624 29.9521 53.22 35.4431 48.032 35.6301Z" fill="#A66D2A"/>
<path d="M56.488 37.2671C57.105 29.5371 65.111 26.7961 75.724 28.2631C86.336 29.7301 103.839 26.6541 117.934 25.6871C132.03 24.7181 133.622 25.9511 133.127 28.0581C132.631 30.1671 127.755 31.2481 119.061 31.0871C110.368 30.9271 105.301 32.8181 93.792 36.6181C82.284 40.4191 57.922 47.1931 56.488 37.2671Z" fill="#FFA764"/>
<path d="M77.33 27.4431C75.327 33.7771 77.025 40.2111 79.308 41.4311C65.918 46.6751 55.429 42.4971 55.648 37.9251C55.866 33.3551 57.281 26.9661 77.33 27.4431Z" fill="#F0A050"/>
</g>
<defs>
<clipPath id="clip0_2_86">
<rect width="207.875" height="74.0011" fill="white"/>
</clipPath>
</defs>
</svg>
