<svg width="214" height="87" viewBox="0 0 214 87" fill="none" xmlns="http://www.w3.org/2000/svg">
<path d="M105.645 25.0485C103.596 11.8385 90.515 20.7675 82.645 22.5905C75.232 24.3065 67.435 29.0235 60.001 26.6955C59.981 26.6575 59.92 26.6905 59.844 26.7505C56.37 24.9335 52.48 23.2905 48.621 23.4815C44.292 23.6955 40.243 24.5385 35.851 24.4145C33.361 24.3445 31.18 24.1295 29.291 22.4355C27.324 22.0245 28.276 18.3535 24.721 18.4155C22.259 18.4585 20.618 20.2035 18.941 21.9935C17.206 23.8455 16.111 25.1745 13.715 26.0685C12.238 26.6195 7.80701 27.1865 6.89101 28.5495C5.72701 30.2795 7.00601 30.2835 8.28501 30.3125C9.44601 30.3385 10.52 30.2035 11.639 30.2755C14.325 30.4495 16.391 29.2155 18.89 28.6775C25.662 27.2185 32.049 29.9115 38.875 31.7915C40.947 32.3625 43.007 33.0775 45.071 33.7995V33.8015L57.402 39.0155C57.61 39.0965 57.832 39.1675 58.083 39.2255C61.994 40.1245 66.665 39.8555 70.654 39.9735C76.09 40.1345 81.534 39.5135 87.018 40.1985C91.464 40.7535 96.073 40.8115 100.319 39.7135C105.495 38.3765 106.394 29.8785 105.645 25.0485Z" fill="#EBB68D"/>
<path d="M84.365 33.3315C83.635 33.3375 82.909 33.4705 82.184 33.5615C78.741 33.9945 75.319 34.1235 71.915 34.8255C68.251 35.5815 64.206 36.4745 60.457 36.4515C55.674 36.4215 51.413 34.3665 46.915 32.9025C42.231 31.3775 37.686 29.4945 33.023 27.9105C31.606 27.4295 30.37 27.1955 28.861 27.0835C27.08 26.9515 24.863 26.8835 23.132 27.2635C21.185 27.6915 19.374 27.8245 17.527 28.6475C16.306 29.1915 15.07 29.3225 13.896 30.0215C13.811 30.0715 13.712 30.1115 13.624 30.1605C15.426 29.8525 17.039 29.0765 18.888 28.6775C25.66 27.2185 32.047 29.9115 38.873 31.7915C40.945 32.3625 43.005 33.0775 45.069 33.7995V33.8015L57.4 39.0155C57.608 39.0965 57.83 39.1675 58.081 39.2255C61.992 40.1245 66.663 39.8555 70.652 39.9735C74.948 40.1005 79.25 39.7485 83.573 39.9305C83.933 39.1345 84.253 38.3505 84.536 37.6245C85.062 36.2725 85.211 34.7935 84.982 33.3815C84.804 33.3655 84.453 33.3315 84.365 33.3315Z" fill="#D9A882"/>
<path d="M84.98 33.3825V33.3835C85.096 33.3955 85.139 33.3995 84.98 33.3825Z" fill="#D9A882"/>
<path d="M209.728 86.3685H0L17.675 71.9815H192.053L209.728 86.3685Z" fill="#D9D9D9"/>
<path d="M107.8 37.9765C106.321 34.0425 104.385 27.6015 99.973 28.0455C93.301 28.7165 92.169 39.5345 93.155 44.4885C94.354 50.5145 96.404 56.4155 98.096 62.3025C98.811 64.7895 99.365 67.2215 99.973 69.6935C96.287 68.0055 91.822 65.9995 87.605 66.5405C83.871 67.0195 80.423 68.0235 76.612 68.2135C74.452 68.3215 72.548 68.2835 70.798 66.9445C69.082 66.7235 69.632 63.5335 66.646 63.7675C65.355 63.8685 64.164 64.5485 63.293 65.5075C60.852 68.1965 60.199 69.9185 57.558 71.1475C56.316 71.7255 52.519 72.5165 51.818 73.7585C50.928 75.3355 52.035 75.2525 53.144 75.1905C54.151 75.1345 55.071 74.9445 56.045 74.9315C58.382 74.9005 60.088 73.6915 62.215 73.0565C67.979 71.3345 73.692 73.2325 79.729 74.3975C84.969 75.4085 90.199 77.4535 95.527 77.7265C98.468 77.8775 102.148 78.5985 105.322 78.3095C106.722 78.1815 107.956 77.3575 108.603 76.1085C109.545 74.2885 110.779 71.5775 111.013 70.3745C111.65 67.1045 112.097 63.9935 112.234 60.6025C112.547 52.9065 110.498 45.1495 107.8 37.9765Z" fill="#EBB68D"/>
<path d="M100.567 71.0455C101.338 71.3205 102.446 72.0055 103.236 72.0105C103.07 70.9925 102.425 70.0395 102.182 69.0125C101.945 68.0095 101.76 66.9925 101.618 65.9765C101.291 63.6505 100.746 60.8855 99.47 58.9015C100.448 58.0965 102.506 57.3155 102.277 55.7905C103.286 52.9455 102.265 50.0735 98.933 49.5795C97.623 49.3855 95.907 49.7615 94.618 50.5015C95.704 54.4615 96.97 58.3865 98.095 62.3015C98.81 64.7885 99.364 67.2205 99.972 69.6925C97.661 68.6335 95.043 67.4515 92.371 66.8495C92.581 66.9415 92.799 67.0405 92.992 67.1165C94.741 67.8025 96.236 68.9395 97.896 69.7895C98.786 70.2455 99.616 70.7065 100.567 71.0455Z" fill="#D9A882"/>
<path d="M90.768 35.7065C90.52 39.5685 90.195 43.2295 91.482 46.9475C92.362 49.4915 93.376 52.2915 94.596 54.7045C95.248 55.9935 95.504 56.7955 96.871 57.2075C98.091 57.5755 99.448 57.6985 100.726 57.6575C101.52 57.6325 102.472 57.6395 103.236 57.3315C104.086 56.9885 103.786 57.3455 103.996 56.3085C104.086 55.8645 103.972 55.5315 104.264 55.2075C104.76 55.6255 105.52 56.2845 105.716 56.9375C107.12 57.2925 109.873 56.8305 111.778 56.0265C112.494 55.7245 112.92 54.9365 112.713 54.1875C112.403 53.0625 112.582 51.2355 112.569 50.5295C112.532 48.5215 112.46 46.5155 112.288 44.5095C112.089 42.1875 111.989 39.7155 111.016 37.5755C110.024 35.3935 108.415 33.1695 106.274 31.9625C103.558 30.4305 99.527 30.7575 96.588 31.3655C93.801 31.9405 91.824 33.2305 90.768 35.7065Z" fill="#4C280B"/>
<path d="M104.328 44.3745C104.123 42.8825 103.819 41.3575 103.526 39.8825C103.084 37.6655 102.627 35.3735 102.506 33.1745C102.486 32.8095 102.507 32.1585 102.53 31.3905C102.535 31.2245 102.537 31.0825 102.542 30.9235C102.081 30.8825 101.616 30.8655 101.148 30.8665C101.143 31.0395 101.138 31.2085 101.134 31.3485C101.109 32.1685 101.091 32.8625 101.112 33.2515C101.238 35.5495 101.705 37.8905 102.156 40.1555C102.446 41.6095 102.745 43.1135 102.945 44.5645C103.366 47.6325 103.899 50.7125 104.316 53.0525C104.49 54.0305 104.67 54.9155 104.86 55.7455C105.231 56.1045 105.591 56.5185 105.717 56.9375C105.975 57.0025 106.29 57.0315 106.625 57.0445C106.284 55.7995 105.981 54.4305 105.692 52.8075C105.276 50.4805 104.746 47.4185 104.328 44.3745Z" fill="#4C280B"/>
<path d="M101.302 44.3285C101.098 42.8375 100.794 41.3135 100.5 39.8395C100.058 37.6215 99.6 35.3275 99.48 33.1285C99.46 32.7635 99.481 32.1125 99.504 31.3445C99.508 31.2005 99.51 31.0785 99.514 30.9405C99.037 30.9815 98.57 31.0345 98.114 31.1015C98.112 31.1665 98.11 31.2445 98.108 31.3035C98.083 32.1235 98.065 32.8175 98.086 33.2065C98.212 35.5055 98.68 37.8475 99.131 40.1135C99.421 41.5675 99.72 43.0705 99.919 44.5195C100.336 47.5585 100.871 50.6515 101.291 53.0075C101.603 54.7565 101.932 56.2205 102.306 57.5565C102.63 57.5115 102.948 57.4485 103.236 57.3325C103.43 57.2545 103.558 57.2145 103.652 57.1845C103.29 55.8915 102.97 54.4695 102.666 52.7625C102.248 50.4195 101.715 47.3435 101.302 44.3285Z" fill="#4C280B"/>
<path d="M152.93 18.4525C154.081 15.4625 158.829 14.6195 161.9 15.1525C164.564 15.6145 166.696 16.9195 169.479 17.0365C172.531 17.1655 175.602 16.8645 178.407 16.2185C181.613 15.4805 184.428 15.8495 187.596 16.7405C191.317 17.7875 194.609 18.1375 198.603 18.1375C200.543 18.1375 202.126 17.9335 204.058 17.5865C205.826 17.2685 207.51 17.0965 209.328 17.0355C210.282 17.0035 213.575 16.7175 213.221 18.2215C213.039 18.9965 209.628 19.4025 208.773 19.6325C207.317 20.0245 205.514 20.4505 204.475 21.2465C203.202 22.2215 203.183 23.4855 201.123 23.1535C199.665 22.9185 198.862 22.3855 197.124 22.3865C195.45 22.3875 193.872 22.3825 192.323 22.7205C189.91 23.2475 188.23 23.0505 185.659 22.7005C184.471 22.5395 180.563 22.7315 179.557 22.7005C178.682 22.5865 172.056 23.3405 168.554 23.6315C164.554 23.9625 160.998 23.1475 157.371 22.0755C155.392 21.4915 152.206 20.3355 152.93 18.4525Z" fill="#D6A680"/>
<path d="M153.011 20.8055C153.588 23.4775 154.052 25.5505 156.398 25.8825C158.598 26.1935 165.276 25.0525 167.453 24.9085C169.316 20.5065 169.436 16.0515 167.078 11.6275C163.458 12.7045 159.312 11.3415 155.737 13.2865C153.078 14.7325 150.117 17.9605 153.011 20.8055Z" fill="#A66D2A"/>
<path d="M164.734 20.8435L162.244 13.926L151.324 17.8558L153.813 24.7733L164.734 20.8435Z" fill="#D9A882"/>
<path d="M158.542 14.3135C155.812 15.3955 156.269 17.3235 156.804 19.0885C157.338 20.8535 158.753 22.2165 160.274 23.2585C161.662 24.2095 163.312 24.9855 164.974 24.7285C166.615 24.4745 167.932 23.2725 169.064 22.0585C172.478 18.3965 175.204 14.0965 177.059 9.4465C174.804 7.6095 172.688 5.8045 169.855 5.1405C167.023 4.4765 163.845 4.8545 161.552 6.6435C159.26 8.4335 157.345 11.6625 158.542 14.3135Z" fill="#EBB68D"/>
<path d="M169.856 5.1405C167.576 4.6065 165.079 4.7625 162.993 5.7705C163.086 7.7635 163.303 9.7565 163.151 11.7485C164.63 10.9215 166.459 10.6985 168.033 11.3465C169.341 11.8845 170.429 12.9095 171.79 13.2935C173.032 13.6435 174.376 13.4005 175.534 12.8125C176.094 11.7145 176.604 10.5905 177.061 9.4455C174.804 7.6095 172.688 5.8045 169.856 5.1405Z" fill="#E0AE87"/>
<path d="M156.339 16.5345C157.444 16.5085 158.282 15.4955 158.67 14.4605C159.057 13.4255 159.176 12.2995 159.633 11.2935C161.22 7.8005 163.553 10.4575 162.619 13.1755C163.69 10.4015 167.226 8.8815 169.976 10.0135C171.284 10.5515 172.372 11.5765 173.733 11.9605C175.21 12.3765 176.836 11.9605 178.116 11.1135C179.396 10.2665 180.37 9.0285 181.178 7.7235C179.404 6.5355 177.169 5.2435 175.394 4.0555C172.958 2.4255 170.439 0.7585 167.562 0.1945C163.478 -0.6075 159.004 1.1205 156.519 4.4595C154.035 7.7985 154.399 12.8525 156.339 16.5345Z" fill="#603813"/>
<path d="M103.843 17.4265C99.426 17.0805 95.241 16.6505 90.964 18.0625C88.038 19.0295 84.817 20.1445 82.034 21.5025C80.548 22.2275 79.626 22.5085 79.132 24.0665C78.691 25.4575 78.529 27.0085 78.555 28.4725C78.571 29.3815 78.547 30.4715 78.888 31.3515C79.267 32.3305 78.863 31.9815 80.047 32.2385C80.554 32.3485 80.937 32.2235 81.303 32.5625C80.816 33.1235 80.05 33.9825 79.3 34.1965C78.871 35.7975 79.356 38.9575 80.246 41.1505C80.581 41.9745 81.476 42.4745 82.337 42.2505C83.63 41.9135 85.719 42.1485 86.527 42.1445C88.826 42.1345 91.124 42.0845 93.423 41.9195C96.084 41.7285 98.916 41.6535 101.381 40.5755C103.895 39.4755 106.466 37.6695 107.883 35.2375C109.68 32.1525 109.37 27.5335 108.722 24.1595C108.106 20.9595 106.661 18.6755 103.843 17.4265Z" fill="#4C280B"/>
<path d="M93.703 32.8095C95.414 32.5985 97.165 32.2755 98.857 31.9635C101.402 31.4935 104.033 31.0065 106.552 30.9045C106.97 30.8875 107.714 30.9215 108.594 30.9605C108.784 30.9685 108.947 30.9735 109.128 30.9815C109.182 30.4545 109.209 29.9225 109.216 29.3865C109.018 29.3785 108.824 29.3695 108.664 29.3625C107.726 29.3215 106.932 29.2885 106.487 29.3065C103.854 29.4145 101.167 29.9115 98.567 30.3915C96.897 30.7005 95.172 31.0185 93.508 31.2235C89.989 31.6565 86.455 32.2175 83.769 32.6575C82.646 32.8415 81.631 33.0325 80.678 33.2365C80.262 33.6555 79.781 34.0605 79.3 34.1985C79.221 34.4925 79.183 34.8525 79.163 35.2365C80.594 34.8655 82.166 34.5405 84.028 34.2365C86.699 33.7965 90.212 33.2385 93.703 32.8095Z" fill="#4C280B"/>
<path d="M93.804 29.3465C95.514 29.1365 97.263 28.8135 98.955 28.5005C101.501 28.0305 104.134 27.5435 106.653 27.4405C107.071 27.4235 107.815 27.4575 108.695 27.4965C108.86 27.5035 108.999 27.5075 109.158 27.5145C109.119 26.9675 109.066 26.4315 108.997 25.9085C108.923 25.9055 108.833 25.9015 108.766 25.8985C107.828 25.8575 107.034 25.8245 106.589 25.8425C103.956 25.9505 101.266 26.4475 98.665 26.9275C96.996 27.2365 95.271 27.5545 93.609 27.7585C90.123 28.1865 86.574 28.7495 83.87 29.1925C81.862 29.5215 80.182 29.8745 78.647 30.2815C78.694 30.6525 78.76 31.0175 78.889 31.3505C78.975 31.5735 79.019 31.7205 79.052 31.8295C80.538 31.4355 82.171 31.0925 84.129 30.7715C86.818 30.3315 90.347 29.7715 93.804 29.3465Z" fill="#4C280B"/>
<path d="M151.919 12.7105C155.683 13.6045 156.213 20.6085 156.37 23.5895C156.601 27.9885 154.727 31.2825 154.158 35.4575C152.979 44.0985 156.869 51.7125 156.865 60.0595C156.863 64.8845 156.652 67.3355 156.618 72.1565C156.586 76.5725 165.239 74.0395 167.985 76.5095C170.106 78.4165 166.679 78.3605 165.025 78.4805C163.188 78.6135 161.554 78.9775 159.585 78.9755C157.881 78.9735 155.258 79.4585 153.651 78.9205C151.371 78.1565 152.026 76.7355 151.92 74.5245C151.731 70.5885 150.122 67.1095 148.966 63.3975C148.28 61.1955 147.581 59.2765 147.47 56.9685C147.381 55.1165 148.204 51.7815 147.717 50.5395C146.839 48.2985 146.608 45.9145 145.77 43.2445C144.922 40.5425 144.798 37.5655 144.379 34.8385C143.521 29.2555 141.493 21.9955 144.188 16.6095C145.381 14.2225 148.884 11.9895 151.919 12.7105Z" fill="#EBB68D"/>
<path d="M159.584 78.9765C160.346 78.9775 161.052 78.9165 161.745 78.8425C161.668 78.8375 161.578 78.8375 161.505 78.8315C160.431 78.7445 159.424 78.6565 158.372 78.4425C156.916 78.1465 155.234 77.7335 154.335 76.4535C153.672 75.5095 153.635 74.3185 153.403 73.2415C153.099 71.8285 152.505 70.4055 151.991 69.0565C150.507 65.1655 149.823 61.4355 149.617 57.2935C149.543 55.8085 149.834 54.8055 150.474 53.5315C151.185 52.1155 150.429 52.0745 149.788 50.8545C149.18 49.6965 148.664 48.3265 148.456 47.0415C148.292 46.0255 148.919 43.8945 148.162 43.1525C148.923 42.4165 150.945 42.0375 151.965 41.4525C152.7 41.0305 153.378 40.3735 153.956 39.6165C153.917 38.2515 153.964 36.8695 154.157 35.4575C154.161 35.4295 154.168 35.4035 154.171 35.3755C153.41 35.1335 152.538 35.1375 151.637 35.0115C150.233 34.8155 148.967 34.2695 147.522 34.4475C146.743 34.5435 146.04 34.8205 145.288 34.9895C144.994 35.0555 144.703 35.0895 144.413 35.1095C144.801 37.7635 144.948 40.6315 145.768 43.2455C146.606 45.9155 146.837 48.2995 147.715 50.5405C148.202 51.7825 147.379 55.1165 147.468 56.9695C147.579 59.2775 148.279 61.1965 148.964 63.3985C150.12 67.1105 151.729 70.5895 151.918 74.5255C152.024 76.7365 151.369 78.1575 153.649 78.9215C155.256 79.4595 157.88 78.9745 159.584 78.9765Z" fill="#D9A882"/>
<path d="M156.854 20.3045C156.576 19.1825 156.118 18.3735 156.185 15.6945C153.316 9.7465 145.867 10.2675 141.282 12.0575C138.421 13.1745 135.466 13.2295 132.607 14.2045C129.655 15.2105 126.65 15.8845 123.563 15.8995C120.335 15.9145 116.987 16.1505 113.818 15.4495C111.236 14.8785 108.563 14.1745 105.927 14.2605C103.05 14.3545 100.327 15.9365 101.265 18.9265C100.805 20.1365 100.764 21.4695 101.466 23.0705C102.505 25.4405 103.688 27.3305 103.035 30.0735C102.43 32.6125 102.24 34.8785 102.263 37.6115C102.277 39.2385 102.623 41.0355 103.8 42.0605C103.803 42.0635 103.806 42.0645 103.809 42.0675C103.433 43.2225 103.23 44.4285 103.572 45.6505C104.293 48.2285 106.999 45.6335 108.387 44.3875C110.926 42.1085 113.671 41.6795 116.81 42.0285C120.716 42.4625 123.769 41.5285 127.223 39.4575C131.341 36.9895 135.493 37.3425 139.962 37.5985C144.48 37.8565 150.038 38.0735 153.727 34.5485C156.815 31.5995 157.959 24.7615 156.854 20.3045Z" fill="#F0A050"/>
<path d="M139.964 37.5985C140.261 37.6155 140.573 37.6295 140.878 37.6445C142.27 36.8255 143.984 36.5805 145.018 35.2025C146.303 33.4905 147.431 30.6465 147.022 28.4725C146.807 27.3305 146.233 26.9915 145.635 25.9475C143.605 26.1965 141.985 29.5135 141.064 31.0505C140.062 32.7215 140.52 35.0155 138.101 35.3285C137.039 35.4665 135.958 34.9865 134.847 34.9885C133.623 34.9905 132.532 35.0435 131.383 35.4745C128.319 36.6225 125.632 37.7965 122.233 36.8425C117.577 35.5345 112.88 31.0075 112.855 25.9505C111.505 27.9585 112.868 31.1065 114.175 32.7585C115.244 34.1095 116.349 35.4455 117.831 36.3865C118.58 36.8615 120.725 37.9545 119.3 38.5885C118.655 38.8755 116.892 38.8195 116.236 38.6035C115.633 38.4045 115.293 37.8975 114.624 37.8125C113.923 37.7245 113.666 38.1085 113.034 38.2335C112.166 38.4055 110.935 38.3955 110.031 38.4745C109.039 38.5615 109.298 38.3425 108.689 37.8535C108.135 37.4085 107.577 37.3505 106.981 36.9755C105.06 35.7695 103.93 32.1595 103.931 29.9965C103.932 28.2195 104.027 26.8485 103.639 25.1135C103.159 22.9675 101.84 21.2405 101.18 19.2375C100.824 20.3665 100.824 21.6035 101.468 23.0705C102.507 25.4405 103.691 27.3305 103.037 30.0735C102.432 32.6125 102.242 34.8785 102.265 37.6125C102.279 39.2395 102.625 41.0365 103.803 42.0615C103.806 42.0645 103.809 42.0655 103.812 42.0685C103.436 43.2235 103.234 44.4295 103.575 45.6515C104.296 48.2295 107.002 45.6345 108.391 44.3885C110.93 42.1095 113.675 41.6805 116.814 42.0295C120.72 42.4635 123.773 41.5295 127.227 39.4585C131.343 36.9895 135.495 37.3425 139.964 37.5985Z" fill="#D28436"/>
<path d="M145.888 22.9405C142.985 23.7185 141.586 29.1575 141.349 31.7515C141.127 34.1835 141.89 36.6385 142.165 39.0205C147.1 40.8285 151.997 40.7175 156.727 37.8885C155.348 33.9725 156.62 29.3455 154.291 25.5265C152.559 22.6845 148.854 19.6085 145.888 22.9405Z" fill="#A66D2A"/>
</svg>
