<svg width="644" height="200" viewBox="0 0 644 200" fill="none" xmlns="http://www.w3.org/2000/svg">
<g filter="url(#filter0_dd_29_814)">
<path d="M593 86L589 96L597 114H598.5C610.9 114 616.333 109.667 617.5 107.5C620.833 105.833 628.5 102.3 632.5 101.5C636.5 100.7 634.167 98.8333 632.5 98H635.5C640.3 97.6 640.167 94.5 639.5 93L629.5 94.5C631.5 93.8333 636 92.2 638 91C640 89.8 639.5 87.8333 639 87H635.5L616.5 92.5C622 90.3333 633.2 85.8 634 85C635 84 634 83 631.5 82C629.5 81.2 613.667 86 606 88.5H601C602 87.3333 604.4 83.8 606 79C607.6 74.2 605.333 73.6667 604 74L593 86Z" fill="#FBD0B4"/>
<path d="M563.313 57.9341L558.814 65.1768L562.838 80.2528L564.034 80.4541C573.923 82.1177 578.823 79.4755 580.037 77.9465C582.913 77.0972 589.489 75.3771 592.784 75.2913C596.079 75.2056 594.462 73.4405 593.242 72.5686L595.634 72.9711C599.515 73.3039 599.814 70.8744 599.479 69.618L591.308 69.4433C592.99 69.193 596.792 68.5261 598.544 67.8609C600.296 67.1957 600.155 65.5987 599.865 64.8834L597.074 64.4138L581.202 66.1434C585.872 65.1958 595.397 63.1717 596.14 62.6567C597.068 62.0129 596.401 61.1008 594.539 59.9875C593.048 59.0968 579.794 60.7067 573.353 61.623L569.365 60.9522C570.315 60.1788 572.692 57.7521 574.596 54.2326C576.5 50.7132 574.762 49.9942 573.655 50.0747L563.313 57.9341Z" fill="#FBD0B4"/>
<path d="M519.5 111C488.3 117.8 465.167 108.167 457.5 102.5C457.5 113.333 458.4 135.4 462 137C466.5 139 497 136 526 135C549.2 134.2 583.333 121 597.5 114.5L589.5 96.5C579.167 98.5 550.7 104.2 519.5 111Z" fill="#F38168"/>
<path d="M559.5 66L511 76.5V100.5L564 82.5L559.5 66Z" fill="#F38168"/>
<path d="M474.5 85C471.7 83 461 83.5 456 84L443.5 85L445.5 84L448 81.5L450 78V74.5H448H445.5L443.5 72.5L442.5 69V65.5L443.5 63L445.5 60.5L448 58H451.5L453.5 60.5L456 56.5H458.5H465L468.5 58C487.7 51.2 498.5 58.5 501.5 63L510 72.5V79L511.5 89.5L510 93V94H508L503.5 93H499V95.5L501.5 99H499L495 98L489.5 95.5L488 98L486.5 101H482.5V99V95.5L484 89.5L481 87.5H476L474.5 85Z" fill="#060606"/>
<path d="M510 100L511 93.5H500.5L498 98.5L488.5 96L484.5 100L482.5 98.5V88L472 84H455L444.5 85L446 89L450.5 97L459.5 105.5L474 111L490.5 113.5L502.5 107.5L510 100Z" fill="#E3BCAC"/>
<path d="M4.5 184.5L50 136L534 141L569 191.5L4.5 184.5Z" fill="#67686B"/>
<path d="M363.5 115.5C340.3 124.7 325.167 115.667 320.5 110L307.5 175C331.5 172.833 384.8 168.2 406 167C427.2 165.8 433.5 157.167 434 153C440 152.5 453.9 148.5 461.5 136.5C469.1 124.5 461 107.833 456 101L453 96C447 94 444.833 86.8333 444.5 83.5H432L419 87C410.167 92.6667 386.7 106.3 363.5 115.5Z" fill="#F38168"/>
<path d="M117.5 61L131 44L133.5 41C133.1 36.6 138.667 33.5 141.5 32.5C142.5 42.5 189 55.5 190 62.5C191 69.5 212.5 88 225.5 92C238.5 96 265 105.5 273.5 106.5C280.3 107.3 289 105.5 292.5 104.5C307.3 104.5 316.667 108.167 319.5 110V112L316 125.5L307.5 173L304.5 172C289 167 286.5 172 275 171C265.8 170.2 251.167 165.667 245 163.5C230.167 154.833 198.4 136.3 190 131.5C181.6 126.7 175.5 116.5 173.5 112L117.5 61Z" fill="#0B0B0E"/>
<path d="M116.5 59.5L95 42.5C97.5 41.5 97 35 96 34.5C95.2 34.1 99 32.3333 101 31.5C113.5 29 119 39 121 39H122.5L130 45.5L117 60.5L116.5 59.5Z" fill="#F6C3A4"/>
<path d="M139.5 32.5L129.5 45.5L121.5 38.5L124.5 25H129.5L139.5 32.5Z" fill="#FBD0B4"/>
<path d="M57.5 6.49999C61.7067 4.30517 72.3463 4.5357 84.4567 5.81489L85 5C98.3333 3.33333 125.6 0 128 0C130.4 0 132 3.33333 132.5 5L134.5 22.5L125.5 24.5L125.037 22.7259C124.577 24.8518 124.038 27.4041 123.5 30.5C121.9 39.7 120.5 40 120 39L114.5 33C103.5 29.5 102.5 32 98 33C93.5 34 95 43.5 94.5 46C94.1 48 90.6667 48.5 89 48.5L81 36.5L64.5 24.5C60.1 18.9 51 18.5 47 19V17.5C47 10 46 12.5 57.5 6.49999Z" fill="#0B0B0E"/>
</g>
<defs>
<filter id="filter0_dd_29_814" x="0.5" y="0" width="643.338" height="199.5" filterUnits="userSpaceOnUse" color-interpolation-filters="sRGB">
<feFlood flood-opacity="0" result="BackgroundImageFix"/>
<feColorMatrix in="SourceAlpha" type="matrix" values="0 0 0 0 0 0 0 0 0 0 0 0 0 0 0 0 0 0 127 0" result="hardAlpha"/>
<feOffset dy="4"/>
<feGaussianBlur stdDeviation="2"/>
<feComposite in2="hardAlpha" operator="out"/>
<feColorMatrix type="matrix" values="0 0 0 0 0 0 0 0 0 0 0 0 0 0 0 0 0 0 0.25 0"/>
<feBlend mode="normal" in2="BackgroundImageFix" result="effect1_dropShadow_29_814"/>
<feColorMatrix in="SourceAlpha" type="matrix" values="0 0 0 0 0 0 0 0 0 0 0 0 0 0 0 0 0 0 127 0" result="hardAlpha"/>
<feOffset dy="4"/>
<feGaussianBlur stdDeviation="2"/>
<feComposite in2="hardAlpha" operator="out"/>
<feColorMatrix type="matrix" values="0 0 0 0 0 0 0 0 0 0 0 0 0 0 0 0 0 0 0.25 0"/>
<feBlend mode="normal" in2="effect1_dropShadow_29_814" result="effect2_dropShadow_29_814"/>
<feBlend mode="normal" in="SourceGraphic" in2="effect2_dropShadow_29_814" result="shape"/>
</filter>
</defs>
</svg>
